<svg xmlns="http://www.w3.org/2000/svg" xmlns:xlink="http://www.w3.org/1999/xlink" width="53" height="53" viewBox="0 0 53 53">
  <defs>
    <clipPath id="clip-path">
      <path id="Rectangle_6246" data-name="Rectangle 6246" d="M12,0H41A12,12,0,0,1,53,12V41A12,12,0,0,1,41,53H0a0,0,0,0,1,0,0V12A12,12,0,0,1,12,0Z" transform="translate(1186.5 130.5)" fill="#fff"/>
    </clipPath>
  </defs>
  <g id="Mask_Group_32" data-name="Mask Group 32" transform="translate(-1186.5 -130.5)" clip-path="url(#clip-path)">
    <path id="Path_16787" data-name="Path 16787" d="M41.758,54.131a28.564,28.564,0,0,0,20.9-1.839,13.069,13.069,0,0,0-8.754-12.968A12.629,12.629,0,0,0,39.32,44.389m2.439,9.742v-.01a20.492,20.492,0,0,0-2.435-9.733m2.435,9.742v.336a37.644,37.644,0,0,1-39.506,0l0-.346A20.134,20.134,0,0,1,17.092,34.534,19.585,19.585,0,0,1,39.32,44.389M32.463,13.7A10.581,10.581,0,0,1,22.005,24.4,10.581,10.581,0,0,1,11.548,13.7,10.581,10.581,0,0,1,22.005,3,10.581,10.581,0,0,1,32.463,13.7Zm25.563,7.133a8.136,8.136,0,1,1-8.134-8.322A8.229,8.229,0,0,1,58.025,20.833Z" transform="translate(1187.251 129.446)" fill="none" stroke="#0560fd" stroke-linecap="round" stroke-linejoin="round" stroke-width="4" opacity="0.2"/>
  </g>
</svg>
