<svg xmlns="http://www.w3.org/2000/svg" width="26" height="34" viewBox="0 0 26 34">
  <g id="Group_23605" data-name="Group 23605" transform="translate(-1614 -596)">
    <g id="Group_23536" data-name="Group 23536" transform="translate(1586 208)">
      <g id="Group_23526" data-name="Group 23526" transform="translate(-68 158)">
        <g id="Ellipse_1215" data-name="Ellipse 1215" transform="translate(101 230)" fill="none" stroke="#00b9db" stroke-width="1.5">
          <circle cx="8" cy="8" r="8" stroke="none"/>
          <circle cx="8" cy="8" r="7.25" fill="none"/>
        </g>
        <g id="Path_16969" data-name="Path 16969" transform="translate(95.25 229.25)" fill="none">
          <path d="M22.615,21.94a13.662,13.662,0,0,0-8.865-3.19,13.667,13.667,0,0,0-8.866,3.19A11.585,11.585,0,0,0,.75,29.75v5h26v-5A11.586,11.586,0,0,0,22.615,21.94Z" stroke="none"/>
          <path d="M 13.66127967834473 20.24971008300781 C 10.80850028991699 20.24971008300781 8.033439636230469 21.25835037231445 5.847280502319336 23.08982086181641 L 5.841859817504883 23.09433937072754 C 4.821260452270508 23.94123077392578 3.989189147949219 24.96500015258789 3.368749618530273 26.13721084594727 C 2.759160995483398 27.28891181945801 2.382926940917969 28.52893829345703 2.25 29.82416343688965 L 2.25 33.25 L 25.25 33.25 L 25.25 29.82416725158691 C 25.11708641052246 28.52918243408203 24.74072265625 27.28922843933105 24.13084983825684 26.13739967346191 C 23.51021003723145 24.96523094177246 22.67794036865234 23.94139099121094 21.65713882446289 23.09433937072754 L 21.6514892578125 23.08963012695312 C 19.44618034362793 21.24135971069336 16.64014053344727 20.23191833496094 13.75961017608643 20.24996948242188 L 13.74997043609619 20.25003051757812 L 13.74032974243164 20.24996948242188 C 13.71407032012939 20.24980163574219 13.68752002716064 20.24971008300781 13.66127967834473 20.24971008300781 M 13.66128349304199 18.74971389770508 C 13.72037792205811 18.74971389770508 13.77961826324463 18.74971389770508 13.83871650695801 18.74971389770508 C 17.0472297668457 18.74977111816406 20.15473175048828 19.8780517578125 22.61499977111816 21.94000053405762 C 24.97100067138672 23.89500045776367 26.45800018310547 26.70299911499023 26.75 29.75 L 26.75 34.75 L 0.75 34.75 L 0.75 29.75 C 1.041999816894531 26.70299911499023 2.527999877929688 23.89500045776367 4.884000778198242 21.94000053405762 C 7.345409393310547 19.87792587280273 10.45256042480469 18.74971389770508 13.66128349304199 18.74971389770508 Z" stroke="none" fill="#00b9db"/>
        </g>
        <g id="Ellipse_1219" data-name="Ellipse 1219" transform="translate(102 231)" fill="none" stroke="#222" stroke-width="1.5">
          <circle cx="7" cy="7" r="7" stroke="none"/>
          <circle cx="7" cy="7" r="6.25" fill="none"/>
        </g>
        <g id="Path_16973" data-name="Path 16973" transform="translate(96.592 230.076)" fill="none">
          <path d="M20.358,21.611a12.252,12.252,0,0,0-7.95-2.861,12.256,12.256,0,0,0-7.951,2.861,10.389,10.389,0,0,0-3.707,7V33.1H24.066V28.615A10.39,10.39,0,0,0,20.358,21.611Z" stroke="none"/>
          <path d="M 12.32865333557129 20.24971389770508 C 9.80660343170166 20.24971389770508 7.353263854980469 21.14140319824219 5.420583724975586 22.76053237915039 L 5.415172576904297 22.76504325866699 C 3.612943649291992 24.26053810119629 2.490720748901367 26.36200904846191 2.250003814697266 28.68905067443848 L 2.250003814697266 31.5985221862793 L 22.56640243530273 31.5985221862793 L 22.56640243530273 28.68905258178711 C 22.32572937011719 26.36251449584961 21.20318603515625 24.26105308532715 19.40033340454102 22.76504325866699 L 19.39469337463379 22.76034355163574 C 17.46299362182617 21.14139366149902 15.01005268096924 20.24976348876953 12.48775291442871 20.24971389770508 L 12.40817356109619 20.25000381469727 L 12.32865333557129 20.24971389770508 M 12.32865333557129 18.74971389770508 C 12.38164710998535 18.74971008300781 12.43475532531738 18.74971008300781 12.48775291442871 18.74971389770508 C 15.3650951385498 18.74977111816406 18.15186882019043 19.76158905029297 20.35820388793945 21.61071395874023 C 22.47102355957031 23.36393356323242 23.80454254150391 25.88210296630859 24.06640243530273 28.61460304260254 L 24.06640243530273 33.0985221862793 L 0.7500038146972656 33.0985221862793 L 0.7500038146972656 28.61460304260254 C 1.011863708496094 25.88210296630859 2.344482421875 23.36393356323242 4.457304000854492 21.61071395874023 C 6.664665222167969 19.761474609375 9.451122283935547 18.74971389770508 12.32865333557129 18.74971389770508 Z" stroke="none" fill="#222"/>
        </g>
      </g>
    </g>
  </g>
</svg>
