<svg xmlns="http://www.w3.org/2000/svg" width="26" height="34" viewBox="0 0 26 34">
  <g id="Group_23606" data-name="Group 23606" transform="translate(-28 -388)">
    <g id="Group_23526" data-name="Group 23526" transform="translate(-68 158)">
      <g id="Ellipse_1215" data-name="Ellipse 1215" transform="translate(101 230)" fill="#222" stroke="#00b9db" stroke-width="1.5">
        <circle cx="8" cy="8" r="8" stroke="none"/>
        <circle cx="8" cy="8" r="7.25" fill="none"/>
      </g>
      <g id="Path_16969" data-name="Path 16969" transform="translate(95.25 229.25)" fill="#222">
        <path d="M 26 34 L 1.5 34 L 1.5 29.78645896911621 C 1.639227509498596 28.38082885742188 2.044851779937744 27.03523445129395 2.705869913101196 25.78635025024414 C 3.372459888458252 24.5269603729248 4.266419887542725 23.42704963684082 5.362929821014404 22.51716995239258 C 7.686560153961182 20.57052993774414 10.63267993927002 19.49971008300781 13.66127967834473 19.49971008300781 C 13.68912029266357 19.49971008300781 13.71728992462158 19.49979972839355 13.74514007568359 19.49998092651367 L 13.75 19.50002098083496 L 13.75485992431641 19.49998092651367 C 13.78289985656738 19.49979972839355 13.81068992614746 19.49971008300781 13.83872032165527 19.49971008300781 C 16.86761093139648 19.49971008300781 19.81332969665527 20.57049942016602 22.13324928283691 22.51482009887695 C 23.23274993896484 23.42719078063965 24.12689971923828 24.52713966369629 24.79368019104004 25.78644943237305 C 25.45501518249512 27.03548240661621 25.86079025268555 28.38104629516602 26 29.78645896911621 L 26 34 Z" stroke="none"/>
        <path d="M 13.66127967834473 20.24971008300781 C 10.80850028991699 20.24971008300781 8.033439636230469 21.25835037231445 5.847280502319336 23.08982086181641 L 5.841859817504883 23.09433937072754 C 4.821260452270508 23.94123077392578 3.989189147949219 24.96500015258789 3.368749618530273 26.13721084594727 C 2.759160995483398 27.28891181945801 2.382926940917969 28.52893829345703 2.25 29.82416343688965 L 2.25 33.25 L 25.25 33.25 L 25.25 29.82416725158691 C 25.11708641052246 28.52918243408203 24.74072265625 27.28922843933105 24.13084983825684 26.13739967346191 C 23.51021003723145 24.96523094177246 22.67794036865234 23.94139099121094 21.65713882446289 23.09433937072754 L 21.6514892578125 23.08963012695312 C 19.44618034362793 21.24135971069336 16.64014053344727 20.23191833496094 13.75961017608643 20.24996948242188 L 13.74997043609619 20.25003051757812 L 13.74032974243164 20.24996948242188 C 13.71407032012939 20.24980163574219 13.68752002716064 20.24971008300781 13.66127967834473 20.24971008300781 M 13.66128349304199 18.74971389770508 C 13.72037792205811 18.74971389770508 13.77961826324463 18.74971389770508 13.83871650695801 18.74971389770508 C 17.0472297668457 18.74977111816406 20.15473175048828 19.8780517578125 22.61499977111816 21.94000053405762 C 24.97100067138672 23.89500045776367 26.45800018310547 26.70299911499023 26.75 29.75 L 26.75 34.75 L 0.75 34.75 L 0.75 29.75 C 1.041999816894531 26.70299911499023 2.527999877929688 23.89500045776367 4.884000778198242 21.94000053405762 C 7.345409393310547 19.87792587280273 10.45256042480469 18.74971389770508 13.66128349304199 18.74971389770508 Z" stroke="none" fill="#00b9db"/>
      </g>
    </g>
  </g>
</svg>
