<svg id="Group_22709" data-name="Group 22709" xmlns="http://www.w3.org/2000/svg" xmlns:xlink="http://www.w3.org/1999/xlink" width="235.055" height="241.151" viewBox="0 0 235.055 241.151">
  <defs>
    <clipPath id="clip-path">
      <rect id="Rectangle_6269" data-name="Rectangle 6269" width="235.055" height="241.151" fill="none"/>
    </clipPath>
  </defs>
  <g id="Group_22709-2" data-name="Group 22709" clip-path="url(#clip-path)">
    <ellipse id="Ellipse_1188" data-name="Ellipse 1188" cx="79" cy="5" rx="79" ry="5" transform="translate(49 216.294)" fill="#e2eaff"/>
    <path id="Path_16888" data-name="Path 16888" d="M691.323,673.12l18.527,116.293,15.63,14.25a3.077,3.077,0,0,1,1,2.3l-.006.794a3.077,3.077,0,0,1-3.077,3.054H681.264a5.107,5.107,0,0,1-5.1-4.821l-4.428-79L659.79,797.377l1.572,6.036a5.107,5.107,0,0,1-4.942,6.394H622.547a5.107,5.107,0,0,1-4.731-7.031l3.006-7.39,35.845-122.493Z" transform="translate(-540.637 -589.197)" fill="#fff"/>
    <path id="Path_16889" data-name="Path 16889" d="M721.5,808.15H679.362a5.384,5.384,0,0,1-5.373-5.08L669.7,726.527l-11.53,68.906,1.557,5.979a5.381,5.381,0,0,1-5.207,6.737H620.646a5.381,5.381,0,0,1-4.985-7.409l3-7.377L654.5,670.884a.275.275,0,0,1,.263-.2h0l34.656.227a.274.274,0,0,1,.269.231l18.513,116.2,15.559,14.185a3.356,3.356,0,0,1,1.093,2.5l-.006.794a3.36,3.36,0,0,1-3.351,3.326m-51.666-84.372h.015a.274.274,0,0,1,.259.259l4.428,79a4.835,4.835,0,0,0,4.825,4.562H721.5a2.81,2.81,0,0,0,2.8-2.782l.006-.794a2.805,2.805,0,0,0-.914-2.092l-15.63-14.249a.275.275,0,0,1-.086-.16L689.187,671.461l-34.216-.224L619.184,793.532a.266.266,0,0,1-.009.026l-3.006,7.39a4.833,4.833,0,0,0,4.477,6.653h33.872a4.833,4.833,0,0,0,4.677-6.051l-1.572-6.036a.279.279,0,0,1-.005-.114l11.946-71.393a.274.274,0,0,1,.27-.229" transform="translate(-538.735 -587.265)"/>
    <path id="Path_16890" data-name="Path 16890" d="M1052.07,848.778a.272.272,0,0,1-.175-.063.275.275,0,0,1-.062-.349c.382-1.007,4.208-24.429,5.655-33.4a.275.275,0,0,1,.087-.16l2.134-1.92a.274.274,0,0,1,.367.408l-2.062,1.855c-2,12.388-5.383,33.108-5.733,33.529a.273.273,0,0,1-.211.1" transform="translate(-920.971 -711.717)"/>
    <path id="Path_16891" data-name="Path 16891" d="M1106.381,1614.14a.274.274,0,0,1-.006-.549c18.914-.42,31.128-6.033,31.249-6.09a.274.274,0,1,1,.232.5c-.122.057-12.432,5.718-31.469,6.141Z" transform="translate(-968.526 -1407.534)"/>
    <path id="Path_16892" data-name="Path 16892" d="M680,1664.59c-6.559,0-13.836-.515-19.622-2.269a.274.274,0,1,1,.159-.525c13.862,4.2,36.421,1.23,36.647,1.2a.275.275,0,0,1,.073.544A146.645,146.645,0,0,1,680,1664.59" transform="translate(-578.068 -1455.088)"/>
    <path id="Path_16893" data-name="Path 16893" d="M756.068,483.844l-3.465,13.8a16.527,16.527,0,0,0,5.4,15.482l10.575,9.2,5.817-19.6,2.529-25.435-13.389,2.087Z" transform="translate(-658.75 -417.923)" fill="#5479f7"/>
    <path id="Path_16894" data-name="Path 16894" d="M1017.846,53.28c.791-1.188,1.442-2.657.99-4.011a2.861,2.861,0,0,0-3.67-1.661,16.276,16.276,0,0,0,1.412-3.221,20,20,0,0,0-10.964,2.536,12.272,12.272,0,0,0-6.056,9.169,6.706,6.706,0,0,0,1.092,4.515,7.3,7.3,0,0,0,4.2,2.5,8.973,8.973,0,0,0,6.326-.5,5.832,5.832,0,0,0,2.8-3.268,4.7,4.7,0,0,0,.222-1.093c.021-.268-.115-.762-.011-1,.122-.28.645-.56.875-.764q.492-.436.948-.911a16.477,16.477,0,0,0,1.837-2.288" transform="translate(-875.206 -38.856)"/>
    <path id="Path_16895" data-name="Path 16895" d="M1116.637,93.357a.274.274,0,0,1-.195-.467,6.746,6.746,0,0,0,1.675-2.838.274.274,0,1,1,.526.155,7.3,7.3,0,0,1-1.812,3.07.274.274,0,0,1-.195.081" transform="translate(-977.507 -78.678)"/>
    <path id="Path_16896" data-name="Path 16896" d="M1021.721,196.407l-2.151-.319.561-7.261s-1.767-8.85-8.573-2.241l-1.248,9.879-1.973.353s.785,4.477,6.5,4.464c4.852-.011,6.9-2.043,6.888-4.874" transform="translate(-882.917 -161.231)" fill="#fff"/>
    <path id="Path_16897" data-name="Path 16897" d="M1007.369,195.287a.274.274,0,0,1-.049-.544l1.657-.3,1.222-9.659a.273.273,0,0,1,.081-.163c2.143-2.081,4.045-2.882,5.646-2.385,2.566.8,3.355,4.608,3.386,4.77a.263.263,0,0,1,0,.075l-.54,7,.989.108a.274.274,0,1,1-.06.545l-1.253-.136a.274.274,0,0,1-.244-.294l.558-7.222c-.084-.378-.87-3.655-3.005-4.318-1.38-.429-3.073.308-5.031,2.188l-1.235,9.763a.274.274,0,0,1-.223.235l-1.855.34a.265.265,0,0,1-.05,0" transform="translate(-881.83 -159.441)"/>
    <path id="Path_16898" data-name="Path 16898" d="M1028.807,128.84a7.494,7.494,0,0,0,3.374,1.967,5.274,5.274,0,0,0,3.867-.7c1.873-1.243,2.552-3.764,2.221-5.987a17.391,17.391,0,0,0-2.636-6.157s-4.385,3.361-8.412,3.9a6.273,6.273,0,0,0-.275,3.833s-.894-.812-1.716-.276a2.323,2.323,0,0,0-.818,2.8,2.607,2.607,0,0,0,2.593,1.462,2.338,2.338,0,0,0,1.623-.681Z" transform="translate(-896.835 -103.294)" fill="#fff"/>
    <path id="Path_16899" data-name="Path 16899" d="M1031.309,129.254a6.075,6.075,0,0,1-1.13-.107,7.283,7.283,0,0,1-3.315-1.869,2.617,2.617,0,0,1-1.783.753,2.882,2.882,0,0,1-2.871-1.624,2.583,2.583,0,0,1,.919-3.14,1.486,1.486,0,0,1,1.479-.063,6.58,6.58,0,0,1,.406-3.364.275.275,0,0,1,.219-.172c3.91-.526,8.239-3.816,8.282-3.849a.279.279,0,0,1,.219-.052.276.276,0,0,1,.184.129,17.827,17.827,0,0,1,2.671,6.257,6.3,6.3,0,0,1-2.341,6.256,5.322,5.322,0,0,1-2.94.844m-4.453-2.618a.272.272,0,0,1,.178.066,7.245,7.245,0,0,0,3.246,1.906,5,5,0,0,0,3.665-.655c1.856-1.232,2.393-3.76,2.1-5.718a16.645,16.645,0,0,0-2.444-5.8c-.978.71-4.628,3.218-8.133,3.751a5.951,5.951,0,0,0-.208,3.521.274.274,0,0,1-.451.266c-.03-.027-.75-.662-1.381-.25a2.049,2.049,0,0,0-.717,2.459,2.318,2.318,0,0,0,2.315,1.3,2.048,2.048,0,0,0,1.45-.6.277.277,0,0,1,.122-.075.269.269,0,0,1,.049-.081.272.272,0,0,1,.208-.1" transform="translate(-894.884 -101.364)"/>
    <path id="Path_16900" data-name="Path 16900" d="M1035.828,188.614a.275.275,0,0,1-.249-.159,2.012,2.012,0,0,0-.884-1.016.346.346,0,0,0-.294.025.274.274,0,0,1-.264-.481.9.9,0,0,1,.729-.065,2.586,2.586,0,0,1,1.211,1.307.274.274,0,0,1-.249.389" transform="translate(-905.383 -163.626)"/>
    <path id="Path_16901" data-name="Path 16901" d="M1078.72,149.7a2.238,2.238,0,0,1-2.027-1.686,2.125,2.125,0,0,1,1.2-2.73,1.8,1.8,0,0,1,1.524.255,2.559,2.559,0,0,1,.913,3.038,1.8,1.8,0,0,1-1.131,1.053,1.674,1.674,0,0,1-.481.071m-.339-3.939a1.132,1.132,0,0,0-.327.048,1.76,1.76,0,0,0,.99,3.295,1.256,1.256,0,0,0,.784-.743,2.012,2.012,0,0,0-.711-2.365,1.338,1.338,0,0,0-.737-.235" transform="translate(-942.673 -127.147)"/>
    <path id="Path_16902" data-name="Path 16902" d="M1117,138.414a1.691,1.691,0,1,1-2.167-1.432,1.852,1.852,0,0,1,2.167,1.432" transform="translate(-975.188 -119.892)" fill="#fff"/>
    <path id="Path_16903" data-name="Path 16903" d="M1113.645,139.2a2.238,2.238,0,0,1-2.027-1.686,2.472,2.472,0,0,1,.071-1.677,1.749,1.749,0,0,1,2.656-.8,2.559,2.559,0,0,1,.913,3.038,1.8,1.8,0,0,1-1.131,1.053,1.693,1.693,0,0,1-.481.071m-.339-3.939a1.132,1.132,0,0,0-.328.048,1.257,1.257,0,0,0-.785.743,1.923,1.923,0,0,0-.05,1.3,1.582,1.582,0,0,0,1.825,1.248,1.256,1.256,0,0,0,.785-.743,2.013,2.013,0,0,0-.711-2.365,1.339,1.339,0,0,0-.737-.235" transform="translate(-973.253 -117.956)"/>
    <path id="Path_16904" data-name="Path 16904" d="M1103.267,154.643a.274.274,0,0,1-.222-.435,1.209,1.209,0,0,1,1.506-.433.274.274,0,1,1-.248.49c-.451-.229-.8.244-.814.264a.274.274,0,0,1-.223.114" transform="translate(-965.8 -134.541)"/>
    <path id="Path_16905" data-name="Path 16905" d="M1043.91,165.458a.274.274,0,0,1,0-.549l4.2-.012h0a.274.274,0,0,1,0,.549l-4.2.012Z" transform="translate(-913.826 -144.387)"/>
    <path id="Path_16906" data-name="Path 16906" d="M835.254,282.787c-4.214-1.794-7.956-1.272-11.368-1.5a6.078,6.078,0,0,1-1.042,2.039,6.246,6.246,0,0,1-3.874,2.018,9.917,9.917,0,0,1-4.18-.231,7.538,7.538,0,0,1-3.289-1.845,5.316,5.316,0,0,1-1-1.386c-8.376.666-13.65,1.682-18.075,7.084-4.822,5.887-7.786,16.5-10.012,23.255l16.272.937c-.4,2.3-.747,4.7-.916,6.79a26.647,26.647,0,0,0,1.252,11.087s2.876.982,15.715.982a154.837,154.837,0,0,0,21.479-1.34,16.982,16.982,0,0,0,1.252-6.616c-.329-3.838-1.061-8.144-1.578-10.9l4.072,3.692a10.742,10.742,0,0,0,13.6.778,8.929,8.929,0,0,0,3.307-4.655c2.629-8.746-11.513-25.887-21.612-30.185" transform="translate(-685.093 -246.299)" fill="#5479f7"/>
    <path id="Path_16907" data-name="Path 16907" d="M898.606,500.01a.273.273,0,0,1-.182-.069l-7.754-6.885a.275.275,0,0,1-.084-.273c.347-1.358,1.629-8.775,2.66-14.734.58-3.357,1.082-6.256,1.237-7.029a.274.274,0,0,1,.538.108c-.154.766-.655,3.661-1.235,7.014-1,5.764-2.229,12.888-2.629,14.613l7.631,6.776a.274.274,0,0,1-.182.479" transform="translate(-779.806 -412.24)"/>
    <path id="Path_16908" data-name="Path 16908" d="M1161.542,406.474a.274.274,0,0,1-.237-.136l-9.949-17.032a.274.274,0,0,1,.474-.276l9.949,17.032a.274.274,0,0,1-.1.375.271.271,0,0,1-.138.038" transform="translate(-1008.115 -340.522)"/>
    <path id="Path_16909" data-name="Path 16909" d="M1071.44,195.326c-2.952-2.7-2.658-8.7-8-11.073a7.738,7.738,0,0,1-1.711,2c-2.088-1.555-2.731-2.081-4.66-3.483a3.256,3.256,0,0,0-2.221-.74,1.71,1.71,0,0,0-1.091.643c-.411.645.225,1.515.62,2.1a20.887,20.887,0,0,0,2.892,3.143s-2.709.415-2.57,2.965c0,0-1.6.284-.875,3.367a3.178,3.178,0,0,0,1.253,3.763,3.111,3.111,0,0,0,2.575.585s5.193,6.5,8.577,8.727,7.971-9.464,5.205-11.99" transform="translate(-922.575 -159.369)" fill="#fff"/>
    <path id="Path_16910" data-name="Path 16910" d="M1062.283,203.963a.273.273,0,0,1-.182-.069,70.553,70.553,0,0,1-6.644-7.165,3.675,3.675,0,0,1-2.617-.661,3.435,3.435,0,0,1-1.393-4.008,3.863,3.863,0,0,1,.209-2.96,1.584,1.584,0,0,1,.67-.588,3.061,3.061,0,0,1,2.329-2.919c-.245-.254-.469-.479-.687-.7a26.162,26.162,0,0,1-2.137-2.364,2.192,2.192,0,0,1-.51-1.993,1.719,1.719,0,0,1,1.782-1,4.169,4.169,0,0,1,1.805.732,21.114,21.114,0,0,1,2.462,1.791,28.214,28.214,0,0,0,2.268,1.706,5.6,5.6,0,0,0,1.5-1.806.274.274,0,0,1,.358-.126c3.4,1.533,4.649,4.516,5.755,7.148a11.484,11.484,0,0,0,2.277,3.973.275.275,0,0,1-.374.4,11.845,11.845,0,0,1-2.409-4.163c-1.041-2.477-2.217-5.277-5.244-6.753a6.025,6.025,0,0,1-1.7,1.884.274.274,0,0,1-.307,0,28.453,28.453,0,0,1-2.469-1.843,20.739,20.739,0,0,0-2.4-1.75,3.674,3.674,0,0,0-1.562-.652,1.188,1.188,0,0,0-1.219.637,1.608,1.608,0,0,0,.421,1.465,25.631,25.631,0,0,0,2.1,2.32c.312.314.634.638,1.018,1.045a.275.275,0,0,1-.157.459c-.1.016-2.462.413-2.338,2.679a.274.274,0,0,1-.226.285.961.961,0,0,0-.55.442,3.383,3.383,0,0,0-.105,2.592.274.274,0,0,1-.01.159,3.118,3.118,0,0,0,3.477,3.994.278.278,0,0,1,.309.087,71.4,71.4,0,0,0,6.691,7.235.274.274,0,0,1-.182.48" transform="translate(-920.478 -157.2)"/>
    <path id="Path_16911" data-name="Path 16911" d="M1069.386,297.927a.276.276,0,0,1-.135-.036,5.565,5.565,0,0,1-2.17-2.341.274.274,0,1,1,.506-.211,5.03,5.03,0,0,0,1.934,2.075.274.274,0,0,1-.136.513" transform="translate(-934.336 -258.456)"/>
    <path id="Path_16912" data-name="Path 16912" d="M1119.172,215.687a.271.271,0,0,1-.091-.016,10.585,10.585,0,0,1-2.328-1.119.274.274,0,1,1,.343-.428,10.337,10.337,0,0,0,2.167,1.03.274.274,0,0,1-.091.533" transform="translate(-977.759 -187.438)"/>
    <path id="Path_16913" data-name="Path 16913" d="M886.213,671.78l4.555,4.019a43.963,43.963,0,0,1-1.461,8.536c-1.28,4.693-5.888,9.225-5.888,9.225l-1.428-1.118.91-12Z" transform="translate(-772.288 -588.222)" fill="#5479f7"/>
    <path id="Path_16914" data-name="Path 16914" d="M885.137,769.558a.275.275,0,0,1-.137-.512c.066-.038,6.629-3.921,9.686-14.346a.274.274,0,0,1,.527.154c-3.124,10.649-9.872,14.628-9.94,14.667a.274.274,0,0,1-.136.036" transform="translate(-774.801 -660.656)"/>
    <path id="Path_16915" data-name="Path 16915" d="M957.648,709.048a8.487,8.487,0,0,1-3.57-.805.274.274,0,1,1,.232-.5c3.049,1.423,5.929.594,6.418-.314.05-.094.184-.342-.278-.626-1.834-1.129-6.785-4.548-6.835-4.582a.274.274,0,0,1,.312-.451c.05.035,4.989,3.445,6.81,4.566a.972.972,0,0,1,.473,1.354c-.413.766-1.811,1.356-3.563,1.356" transform="translate(-834.898 -614.441)"/>
    <path id="Path_16916" data-name="Path 16916" d="M896.245,843.885a.273.273,0,0,1-.194-.08l-1.5-1.5a.274.274,0,1,1,.388-.388l1.5,1.5a.274.274,0,0,1-.194.468" transform="translate(-783.211 -737.123)"/>
    <path id="Path_16917" data-name="Path 16917" d="M346.787,804.969a5.1,5.1,0,0,0-.515-.353,21.072,21.072,0,0,0,1.7-6.03,5.145,5.145,0,1,0-1.189-10.133,20.936,20.936,0,0,0-3.05-5.457,5.128,5.128,0,0,0-.429-7.689,5.132,5.132,0,0,0-7.212.868,5.207,5.207,0,0,0-.354.517A20.882,20.882,0,0,0,329.727,775a5.134,5.134,0,1,0-10.231.6,5.109,5.109,0,0,0,.114.615,21.029,21.029,0,0,0-5.456,3.07,5.147,5.147,0,1,0-6.313,8.026,21.063,21.063,0,0,0-1.7,6.03,5.145,5.145,0,1,0,1.189,10.133,20.935,20.935,0,0,0,3.049,5.458,5.213,5.213,0,0,0-.419.465,5.132,5.132,0,1,0,8.413,5.838,20.885,20.885,0,0,0,6.014,1.689,5.173,5.173,0,0,0,.032.625,5.137,5.137,0,1,0,10.085-1.843,21.008,21.008,0,0,0,5.456-3.069,5.144,5.144,0,1,0,6.828-7.673m-25.64-1.489a9.559,9.559,0,1,1,13.394-1.612,9.558,9.558,0,0,1-13.394,1.612" transform="translate(-263.543 -674.093)" fill="#fff"/>
    <path id="Path_16918" data-name="Path 16918" d="M327.563,820.429a5.4,5.4,0,0,1-5.348-4.773c-.016-.13-.025-.268-.031-.415a21.146,21.146,0,0,1-5.638-1.583c-.081.123-.161.235-.243.339a5.406,5.406,0,1,1-8.491-6.694c.082-.1.172-.208.273-.317a21.2,21.2,0,0,1-2.859-5.117c-.144.03-.279.052-.41.068a5.4,5.4,0,0,1-6-4.734,5.439,5.439,0,0,1,4.74-6.026c.132-.016.268-.026.415-.031a21.326,21.326,0,0,1,1.6-5.654c-.123-.081-.233-.16-.338-.243a5.428,5.428,0,0,1,2.728-9.642,5.356,5.356,0,0,1,3.976,1.12c.1.081.207.171.314.272a21.271,21.271,0,0,1,5.116-2.878c-.03-.145-.052-.281-.067-.412a5.439,5.439,0,0,1,4.74-6.026,5.4,5.4,0,0,1,6,4.734c.015.131.025.268.03.415a21.145,21.145,0,0,1,5.638,1.583c.082-.124.162-.236.243-.339a5.406,5.406,0,1,1,8.491,6.694c-.082.1-.172.209-.273.316a21.21,21.21,0,0,1,2.859,5.117c.144-.03.28-.052.41-.068a5.4,5.4,0,0,1,6,4.734,5.438,5.438,0,0,1-4.74,6.026c-.132.016-.267.026-.415.031a21.339,21.339,0,0,1-1.6,5.654c.123.081.235.161.337.242a5.428,5.428,0,0,1-2.728,9.642,5.358,5.358,0,0,1-3.976-1.12c-.1-.082-.207-.17-.315-.271a21.273,21.273,0,0,1-5.115,2.878c.029.145.052.281.067.412a5.439,5.439,0,0,1-4.74,6.026,5.531,5.531,0,0,1-.657.039m-11.121-7.393a.269.269,0,0,1,.113.024,20.614,20.614,0,0,0,5.935,1.667.274.274,0,0,1,.241.273,4.844,4.844,0,0,0,5.424,4.845,4.855,4.855,0,0,0,4.152-6,.274.274,0,0,1,.169-.321,20.733,20.733,0,0,0,5.384-3.03.274.274,0,0,1,.363.023,4.852,4.852,0,0,0,7.265-.426,4.834,4.834,0,0,0-1.29-7.172.274.274,0,0,1-.107-.347,20.794,20.794,0,0,0,1.679-5.952.274.274,0,0,1,.272-.24,4.7,4.7,0,0,0,.59-.031,4.889,4.889,0,0,0,4.261-5.417,4.846,4.846,0,0,0-5.394-4.253,4.919,4.919,0,0,0-.581.11.274.274,0,0,1-.322-.17,20.668,20.668,0,0,0-3.01-5.386.274.274,0,0,1,.023-.362,4.853,4.853,0,0,0-.405-7.279,4.858,4.858,0,0,0-6.826.822,4.889,4.889,0,0,0-.335.49.274.274,0,0,1-.347.108,20.6,20.6,0,0,0-5.935-1.667.274.274,0,0,1-.241-.273,4.9,4.9,0,0,0-.03-.592,4.847,4.847,0,0,0-5.394-4.253,4.854,4.854,0,0,0-4.152,6,.274.274,0,0,1-.169.321,20.741,20.741,0,0,0-5.385,3.03.274.274,0,0,1-.363-.023,4.852,4.852,0,0,0-7.265.427,4.834,4.834,0,0,0,1.29,7.172.274.274,0,0,1,.107.347,20.783,20.783,0,0,0-1.679,5.951.274.274,0,0,1-.272.24h-.01a4.808,4.808,0,0,0-.581.031,4.889,4.889,0,0,0-4.261,5.417,4.821,4.821,0,0,0,5.975,4.143.275.275,0,0,1,.322.17,20.658,20.658,0,0,0,3.01,5.386.274.274,0,0,1-.023.362,4.929,4.929,0,0,0-.4.441,4.878,4.878,0,0,0,.8,6.838,4.857,4.857,0,0,0,6.826-.822,4.887,4.887,0,0,0,.335-.49.274.274,0,0,1,.235-.132m8.639-9.171a9.7,9.7,0,0,1-6.035-2.1,9.845,9.845,0,0,1,4.948-17.488,9.726,9.726,0,0,1,7.211,2.031,9.845,9.845,0,0,1-4.948,17.488,9.982,9.982,0,0,1-1.176.07m.088-19.109a9.391,9.391,0,0,0-1.11.066,9.208,9.208,0,1,0,1.11-.066" transform="translate(-261.613 -672.162)"/>
    <path id="Path_16919" data-name="Path 16919" d="M74.239,1052.13a3.478,3.478,0,0,0-.251-.333,14.056,14.056,0,0,0,2.357-3.453,3.4,3.4,0,0,0,.4.111,3.431,3.431,0,0,0,1.411-6.716,3.4,3.4,0,0,0-.413-.057,13.97,13.97,0,0,0-.77-4.1,3.485,3.485,0,0,0,.364-.206,3.424,3.424,0,1,0-4.082-5.479,13.934,13.934,0,0,0-3.445-2.345,3.426,3.426,0,1,0-6.658-1.378,14.02,14.02,0,0,0-4.1.783,3.434,3.434,0,1,0-5.7,3.736A14.054,14.054,0,0,0,51,1036.147a3.388,3.388,0,0,0-.4-.111,3.431,3.431,0,1,0-1,6.773,13.966,13.966,0,0,0,.77,4.1,3.421,3.421,0,0,0-1.361,4.954,3.424,3.424,0,0,0,4.746.982,3.511,3.511,0,0,0,.333-.252,13.937,13.937,0,0,0,3.445,2.345,3.426,3.426,0,1,0,6.658,1.378,14.028,14.028,0,0,0,4.1-.783,3.432,3.432,0,1,0,5.948-3.4m-15.9-6.386a6.378,6.378,0,1,1,8.814,1.824,6.377,6.377,0,0,1-8.814-1.824" transform="translate(-40.68 -897.532)" fill="#fff"/>
    <path id="Path_16920" data-name="Path 16920" d="M58.828,1057.81a3.722,3.722,0,0,1-.751-.077,3.691,3.691,0,0,1-2.863-4.378c.014-.066.03-.133.049-.2a14.187,14.187,0,0,1-3.125-2.128c-.058.044-.115.084-.171.121a3.7,3.7,0,1,1-4.05-6.19c.057-.037.116-.073.179-.109a14.229,14.229,0,0,1-.7-3.719c-.072-.01-.14-.022-.2-.036a3.691,3.691,0,0,1-2.863-4.378,3.722,3.722,0,0,1,4.385-2.876c.066.014.133.03.2.049a14.344,14.344,0,0,1,2.139-3.134c-.043-.058-.082-.114-.119-.171a3.713,3.713,0,0,1,3.868-5.659,3.667,3.667,0,0,1,2.335,1.592c.036.056.072.115.108.178a14.281,14.281,0,0,1,3.723-.711c.01-.072.023-.14.036-.207a3.72,3.72,0,0,1,4.385-2.876,3.691,3.691,0,0,1,2.863,4.378c-.014.066-.03.133-.05.2a14.214,14.214,0,0,1,3.126,2.128c.058-.043.115-.084.171-.12a3.7,3.7,0,1,1,4.05,6.19c-.057.037-.116.073-.179.109a14.228,14.228,0,0,1,.7,3.719c.071.01.139.022.2.035a3.691,3.691,0,0,1,2.864,4.378,3.721,3.721,0,0,1-4.385,2.875c-.066-.014-.133-.03-.2-.049a14.322,14.322,0,0,1-2.139,3.134c.043.058.083.115.12.17a3.713,3.713,0,0,1-3.868,5.659,3.668,3.668,0,0,1-2.335-1.592c-.037-.057-.073-.115-.108-.178a14.3,14.3,0,0,1-3.723.711c-.01.072-.022.14-.036.206a3.725,3.725,0,0,1-3.635,2.953m-6.678-7.42a.273.273,0,0,1,.186.073,13.654,13.654,0,0,0,3.377,2.3.274.274,0,0,1,.141.336,3.162,3.162,0,0,0-.1.37,3.142,3.142,0,0,0,2.438,3.728,3.169,3.169,0,0,0,3.738-2.451,3.2,3.2,0,0,0,.054-.38.274.274,0,0,1,.262-.25,13.748,13.748,0,0,0,4.023-.768.275.275,0,0,1,.337.137,3.066,3.066,0,0,0,.188.334,3.149,3.149,0,0,0,4.366.9,3.163,3.163,0,0,0,.919-4.369,3.235,3.235,0,0,0-.231-.306.274.274,0,0,1,.009-.363,13.778,13.778,0,0,0,2.311-3.385.274.274,0,0,1,.335-.141,3.157,3.157,0,1,0,1.668-6.076,3.2,3.2,0,0,0-.38-.052.275.275,0,0,1-.252-.264,13.688,13.688,0,0,0-.755-4.019.274.274,0,0,1,.137-.336,3.145,3.145,0,0,0,1.253-4.559,3.151,3.151,0,0,0-4.366-.9,3.239,3.239,0,0,0-.307.232.273.273,0,0,1-.364-.008,13.668,13.668,0,0,0-3.378-2.3.275.275,0,0,1-.141-.335,3.151,3.151,0,1,0-6.071-1.646,3.075,3.075,0,0,0-.054.38.274.274,0,0,1-.262.251,13.763,13.763,0,0,0-4.023.768.274.274,0,0,1-.337-.137,3.2,3.2,0,0,0-.188-.334,3.15,3.15,0,0,0-4.366-.9,3.137,3.137,0,0,0-.688,4.676.274.274,0,0,1-.009.363,13.778,13.778,0,0,0-2.311,3.385.274.274,0,0,1-.335.141,3.1,3.1,0,0,0-.369-.1,3.169,3.169,0,0,0-3.737,2.451,3.142,3.142,0,0,0,2.438,3.728,3.054,3.054,0,0,0,.379.052.274.274,0,0,1,.252.264,13.688,13.688,0,0,0,.755,4.019.274.274,0,0,1-.137.336,3.2,3.2,0,0,0-.336.189,3.164,3.164,0,0,0-.918,4.369,3.15,3.15,0,0,0,4.366.9,3.294,3.294,0,0,0,.307-.232.274.274,0,0,1,.177-.065m9.579-3.428a6.7,6.7,0,0,1-1.369-.142,6.574,6.574,0,0,1-4.187-2.855,6.66,6.66,0,0,1,6.938-10.15,6.574,6.574,0,0,1,4.187,2.855,6.664,6.664,0,0,1-5.57,10.292m.015-12.74a6.093,6.093,0,1,0,1.256.13,6.147,6.147,0,0,0-1.256-.13" transform="translate(-38.745 -895.603)"/>
    <path id="Path_16921" data-name="Path 16921" d="M346.955,1201.967a2.172,2.172,0,0,0-.161-.213,9.014,9.014,0,0,0,1.511-2.213,2.167,2.167,0,0,0,.257.071,2.2,2.2,0,0,0,.9-4.305,2.183,2.183,0,0,0-.265-.037,8.955,8.955,0,0,0-.494-2.628,2.166,2.166,0,0,0,.233-.132,2.2,2.2,0,1,0-2.617-3.513,8.929,8.929,0,0,0-2.209-1.5,2.215,2.215,0,0,0,.072-.258,2.2,2.2,0,1,0-4.34-.626,8.986,8.986,0,0,0-2.63.5,2.181,2.181,0,0,0-3.174-.862,2.2,2.2,0,0,0-.639,3.044,2.152,2.152,0,0,0,.161.213,9.011,9.011,0,0,0-1.511,2.214,2.19,2.19,0,0,0-2.861,1.636,2.19,2.19,0,0,0,1.7,2.6,2.159,2.159,0,0,0,.265.036,8.952,8.952,0,0,0,.494,2.628,2.2,2.2,0,1,0,2.384,3.644,8.935,8.935,0,0,0,2.209,1.5,2.182,2.182,0,0,0,1.627,2.855,2.207,2.207,0,0,0,2.6-1.708,2.231,2.231,0,0,0,.037-.265,8.994,8.994,0,0,0,2.63-.5,2.2,2.2,0,1,0,3.813-2.182m-10.194-4.094a4.089,4.089,0,1,1,5.651,1.169,4.088,4.088,0,0,1-5.651-1.169" transform="translate(-288.205 -1037.25)" fill="#fff"/>
    <path id="Path_16922" data-name="Path 16922" d="M336.382,1205.013a2.465,2.465,0,0,1-2.414-2.974c0-.02.008-.039.013-.058a9.175,9.175,0,0,1-1.9-1.29l-.049.034a2.469,2.469,0,1,1-2.7-4.133l.051-.032a9.213,9.213,0,0,1-.424-2.255l-.057-.011a2.465,2.465,0,0,1-1.912-2.923,2.484,2.484,0,0,1,2.928-1.92l.058.013a9.278,9.278,0,0,1,1.3-1.9l-.033-.048a2.479,2.479,0,0,1,2.582-3.779,2.447,2.447,0,0,1,1.559,1.063l.031.05a9.265,9.265,0,0,1,2.258-.431c0-.02.008-.04.012-.059a2.484,2.484,0,0,1,2.928-1.92,2.465,2.465,0,0,1,1.912,2.923l-.013.057a9.213,9.213,0,0,1,1.895,1.29l.05-.034a2.469,2.469,0,1,1,2.7,4.133l-.051.032a9.225,9.225,0,0,1,.424,2.255l.058.011a2.464,2.464,0,0,1,1.912,2.923,2.483,2.483,0,0,1-2.928,1.92l-.058-.013a9.3,9.3,0,0,1-1.3,1.9l.033.048h0a2.479,2.479,0,0,1-2.582,3.778,2.447,2.447,0,0,1-1.559-1.063l-.031-.049a9.265,9.265,0,0,1-2.258.431c0,.02-.007.039-.011.059a2.486,2.486,0,0,1-2.426,1.971m-4.282-4.953a.274.274,0,0,1,.186.073,8.652,8.652,0,0,0,2.141,1.457.274.274,0,0,1,.141.335,2.023,2.023,0,0,0-.064.226,1.916,1.916,0,0,0,1.487,2.272,1.933,1.933,0,0,0,2.28-1.5,2,2,0,0,0,.032-.232.274.274,0,0,1,.262-.251,8.714,8.714,0,0,0,2.55-.487.274.274,0,0,1,.337.138,1.929,1.929,0,0,0,.114.2,1.921,1.921,0,0,0,2.663.551,1.93,1.93,0,0,0,.56-2.665,1.894,1.894,0,0,0-.141-.187.275.275,0,0,1,.009-.363,8.731,8.731,0,0,0,1.465-2.146.276.276,0,0,1,.335-.141,1.855,1.855,0,0,0,.225.063,1.936,1.936,0,0,0,2.28-1.495,1.916,1.916,0,0,0-1.487-2.273,1.82,1.82,0,0,0-.231-.032.274.274,0,0,1-.252-.263,8.671,8.671,0,0,0-.479-2.548.275.275,0,0,1,.137-.336,1.893,1.893,0,0,0,.2-.115,1.929,1.929,0,0,0,.561-2.665,1.922,1.922,0,0,0-2.663-.55,1.932,1.932,0,0,0-.187.141.273.273,0,0,1-.364-.008,8.662,8.662,0,0,0-2.141-1.458.275.275,0,0,1-.141-.335,1.932,1.932,0,0,0,.063-.225,1.915,1.915,0,0,0-1.486-2.273,1.934,1.934,0,0,0-2.28,1.495,1.9,1.9,0,0,0-.033.232.274.274,0,0,1-.263.251,8.715,8.715,0,0,0-2.55.486.274.274,0,0,1-.337-.137,2.017,2.017,0,0,0-.115-.2,1.922,1.922,0,0,0-2.663-.55,1.929,1.929,0,0,0-.56,2.665,1.981,1.981,0,0,0,.141.187.275.275,0,0,1-.009.363,8.729,8.729,0,0,0-1.465,2.146.275.275,0,0,1-.335.141,1.915,1.915,0,0,0-2.505,1.432,1.917,1.917,0,0,0,1.487,2.273,1.949,1.949,0,0,0,.232.032.274.274,0,0,1,.251.263,8.677,8.677,0,0,0,.479,2.548.274.274,0,0,1-.138.336,1.96,1.96,0,0,0-.2.115,1.929,1.929,0,0,0-.56,2.665,1.921,1.921,0,0,0,2.663.551,2.036,2.036,0,0,0,.188-.142.274.274,0,0,1,.177-.064m6.141-2a4.4,4.4,0,0,1-.9-.093,4.311,4.311,0,0,1-2.747-1.873,4.368,4.368,0,0,1,4.551-6.657,4.312,4.312,0,0,1,2.747,1.873,4.371,4.371,0,0,1-3.653,6.751m-3.186-2.267a3.8,3.8,0,0,0,5.27,1.091,3.819,3.819,0,0,0,1.109-5.275,3.8,3.8,0,0,0-5.27-1.09,3.818,3.818,0,0,0-1.109,5.274" transform="translate(-286.272 -1035.319)"/>
    <path id="Path_16923" data-name="Path 16923" d="M294.706,2.3H239.357a3.319,3.319,0,0,0-3.314,3.323V31.151a3.319,3.319,0,0,0,3.314,3.323h72.155L298.02,27.822V5.624A3.319,3.319,0,0,0,294.706,2.3" transform="translate(-206.683 -2.015)" fill="#fff"/>
    <path id="Path_16924" data-name="Path 16924" d="M309.58,32.816H237.425a3.6,3.6,0,0,1-3.588-3.6V3.692A3.6,3.6,0,0,1,237.425.1h55.349a3.6,3.6,0,0,1,3.588,3.6V25.72L309.7,32.3a.274.274,0,0,1-.121.52M237.425.644a3.048,3.048,0,0,0-3.04,3.049V29.219a3.048,3.048,0,0,0,3.04,3.049H308.4l-12.437-6.131a.274.274,0,0,1-.153-.246V3.692a3.048,3.048,0,0,0-3.04-3.049Z" transform="translate(-204.752 -0.083)"/>
    <path id="Path_16925" data-name="Path 16925" d="M321.338,66.176a.274.274,0,0,1-.274-.274V62.449a.274.274,0,0,1,.274-.274,5.445,5.445,0,1,0-5.122-7.258.274.274,0,0,1-.518-.182,5.982,5.982,0,1,1,5.913,7.982V65.9a.274.274,0,0,1-.274.274" transform="translate(-276.418 -44.425)"/>
    <path id="Path_16926" data-name="Path 16926" d="M359.252,184.91a.274.274,0,0,1-.274-.274V183.2a.274.274,0,1,1,.548,0v1.439a.274.274,0,0,1-.274.274" transform="translate(-314.327 -160.171)"/>
    <path id="Path_16927" data-name="Path 16927" d="M440.853,66.176a.274.274,0,0,1-.274-.274V62.449a.274.274,0,0,1,.274-.274,5.445,5.445,0,1,0-5.122-7.258.274.274,0,0,1-.518-.182,5.982,5.982,0,1,1,5.913,7.982V65.9a.274.274,0,0,1-.274.274" transform="translate(-381.068 -44.425)"/>
    <path id="Path_16928" data-name="Path 16928" d="M478.767,184.91a.274.274,0,0,1-.274-.274V183.2a.274.274,0,1,1,.549,0v1.439a.274.274,0,0,1-.274.274" transform="translate(-418.977 -160.171)"/>
    <path id="Path_16929" data-name="Path 16929" d="M563.741,66.176a.274.274,0,0,1-.274-.274V62.449a.274.274,0,0,1,.274-.274,5.445,5.445,0,1,0-5.122-7.258.274.274,0,0,1-.518-.182,5.982,5.982,0,1,1,5.913,7.982V65.9a.274.274,0,0,1-.274.274" transform="translate(-488.67 -44.425)"/>
    <path id="Path_16930" data-name="Path 16930" d="M601.654,184.91a.274.274,0,0,1-.274-.274V183.2a.274.274,0,1,1,.549,0v1.439a.274.274,0,0,1-.274.274" transform="translate(-526.579 -160.171)"/>
  </g>
</svg>
