<svg xmlns="http://www.w3.org/2000/svg" width="17" height="18.021" viewBox="0 0 17 18.021">
  <g id="Group_22174" data-name="Group 22174" transform="translate(-15.5 -11.479)">
    <g id="Group_22727" data-name="Group 22727">
      <path id="Path_16710" data-name="Path 16710" d="M6.333,1.979V5m9.333-3.021V5M3,17V7A2,2,0,0,1,5,5H17a2,2,0,0,1,2,2V17M3,17a2,2,0,0,0,2,2H17a2,2,0,0,0,2-2" transform="translate(13 10)" fill="#c4daff" stroke="#0560fd" stroke-linecap="round" stroke-linejoin="round" stroke-width="1"/>
      <path id="Path_16827" data-name="Path 16827" d="M8.1,6.19a1.9,1.9,0,0,0-1.75,1.153A5.725,5.725,0,0,1,2.656,3.654,1.9,1.9,0,1,0,0,1.9,8.1,8.1,0,0,0,8.1,10a1.9,1.9,0,1,0,0-3.809Z" transform="translate(19 17)" fill="#0560fd"/>
    </g>
  </g>
</svg>
