<svg xmlns="http://www.w3.org/2000/svg" xmlns:xlink="http://www.w3.org/1999/xlink" width="53" height="53" viewBox="0 0 53 53">
  <defs>
    <clipPath id="clip-path">
      <path id="Rectangle_6248" data-name="Rectangle 6248" d="M12,0H41A12,12,0,0,1,53,12V41A12,12,0,0,1,41,53H0a0,0,0,0,1,0,0V12A12,12,0,0,1,12,0Z" transform="translate(1186.5 130.5)" fill="#fff"/>
    </clipPath>
  </defs>
  <g id="Mask_Group_34" data-name="Mask Group 34" transform="translate(-1186.5 -130.5)" clip-path="url(#clip-path)">
    <path id="Path_16786" data-name="Path 16786" d="M45.031,17.528V26.9m0,0v9.373m0-9.373h9.211m-9.211,0H35.821M33.935,13.544a10.364,10.364,0,1,1-20.724,0,10.364,10.364,0,1,1,20.724,0ZM4,53.722v-.344A19.747,19.747,0,0,1,23.573,33.461,19.747,19.747,0,0,1,43.145,53.378v.341A37.475,37.475,0,0,1,4,53.719Z" transform="translate(1184.844 130.912)" fill="none" stroke="#0560fd" stroke-linecap="round" stroke-linejoin="round" stroke-width="4" opacity="0.2"/>
  </g>
</svg>
