<svg xmlns="http://www.w3.org/2000/svg" xmlns:xlink="http://www.w3.org/1999/xlink" width="53" height="53" viewBox="0 0 53 53">
  <defs>
    <clipPath id="clip-path">
      <rect id="Rectangle_6245" data-name="Rectangle 6245" width="53" height="53" rx="12" transform="translate(1186.5 130.5)" fill="#fff"/>
    </clipPath>
  </defs>
  <g id="Mask_Group_31" data-name="Mask Group 31" transform="translate(-1186.5 -130.5)" clip-path="url(#clip-path)">
    <path id="Path_16788" data-name="Path 16788" d="M6.9,21.253a5.572,5.572,0,0,1,.913-.076h41.97a5.571,5.571,0,0,1,.913.076m-43.8,0a6.474,6.474,0,0,0-5,7.383L4.18,46.064a6.175,6.175,0,0,0,5.911,5.612H47.514a6.174,6.174,0,0,0,5.911-5.61L55.7,28.637a6.474,6.474,0,0,0-5-7.383m-43.8,0V10.285a6.273,6.273,0,0,1,5.97-6.535h10.3a3.816,3.816,0,0,1,2.814,1.278l5.632,6.158a3.816,3.816,0,0,0,2.814,1.278h10.3A6.273,6.273,0,0,1,50.7,19v2.254" transform="translate(1188.162 129.687)" fill="none" stroke="#0560fd" stroke-linecap="round" stroke-linejoin="round" stroke-width="4" opacity="0.2"/>
  </g>
</svg>
