<svg xmlns="http://www.w3.org/2000/svg" xmlns:xlink="http://www.w3.org/1999/xlink" width="53" height="53" viewBox="0 0 53 53">
  <defs>
    <clipPath id="clip-path">
      <rect id="Rectangle_6249" data-name="Rectangle 6249" width="53" height="53" rx="12" transform="translate(1186.5 130.5)" fill="#fff"/>
    </clipPath>
  </defs>
  <g id="Mask_Group_35" data-name="Mask Group 35" transform="translate(-1186.5 -130.5)" clip-path="url(#clip-path)">
    <g id="Group_22125" data-name="Group 22125" transform="translate(1186.5 131.788)">
      <g id="Group_21982" data-name="Group 21982" transform="translate(0 0)" opacity="0.2">
        <g id="Group_99" data-name="Group 99" transform="translate(17.728 17.696)">
          <path id="Path_16540" data-name="Path 16540" d="M11.455,4.223A1.464,1.464,0,0,1,12.9,3h3.373a1.464,1.464,0,0,1,1.444,1.223l.277,1.666a1.625,1.625,0,0,0,.839,1.132c.1.052.191.108.286.165a1.617,1.617,0,0,0,1.4.161L22.1,6.754a1.463,1.463,0,0,1,1.782.637l1.686,2.923a1.463,1.463,0,0,1-.338,1.861l-1.3,1.076a1.615,1.615,0,0,0-.561,1.29q0,.166,0,.332a1.615,1.615,0,0,0,.559,1.288l1.307,1.077a1.464,1.464,0,0,1,.338,1.86L23.88,22.021a1.463,1.463,0,0,1-1.781.639l-1.583-.593a1.621,1.621,0,0,0-1.4.161q-.141.086-.286.167a1.622,1.622,0,0,0-.838,1.13l-.277,1.665a1.464,1.464,0,0,1-1.444,1.224H12.9a1.464,1.464,0,0,1-1.444-1.223l-.277-1.666a1.62,1.62,0,0,0-.838-1.132q-.145-.08-.286-.165a1.62,1.62,0,0,0-1.4-.161L7.07,22.66a1.463,1.463,0,0,1-1.781-.637L3.6,19.1a1.463,1.463,0,0,1,.338-1.861l1.306-1.076a1.618,1.618,0,0,0,.559-1.29q0-.166,0-.332a1.615,1.615,0,0,0-.559-1.288L3.94,12.176a1.463,1.463,0,0,1-.338-1.86L5.289,7.393a1.463,1.463,0,0,1,1.782-.639l1.582.593a1.62,1.62,0,0,0,1.4-.161c.094-.057.19-.113.286-.167a1.615,1.615,0,0,0,.838-1.13l.278-1.666Z" transform="translate(-3.406 -3)" fill="none" stroke="#0560fd" stroke-linecap="round" stroke-linejoin="round" stroke-width="4"/>
          <path id="Path_16541" data-name="Path 16541" d="M16.8,12.9A3.9,3.9,0,1,1,12.9,9a3.9,3.9,0,0,1,3.9,3.9Z" transform="translate(-1.724 -1.195)" fill="none" stroke="#0560fd" stroke-linecap="round" stroke-linejoin="round" stroke-width="4"/>
        </g>
        <path id="Path_16545" data-name="Path 16545" d="M18.934,10.647l6.7-.983v0M0,.648c5.769-1.3,16.646-1.663,25.631,9.013m.11-7.8-.11,7.8" transform="matrix(-0.259, -0.966, 0.966, -0.259, 6.662, 42.715)" fill="none" stroke="#0560fd" stroke-linecap="round" stroke-linejoin="round" stroke-width="4"/>
        <path id="Path_16614" data-name="Path 16614" d="M18.934,10.647l6.7-.983v0M0,.648c5.769-1.3,16.646-1.663,25.631,9.013m.11-7.8-.11,7.8" transform="matrix(0.259, 0.966, -0.966, 0.259, 51.152, 15.096)" fill="none" stroke="#0560fd" stroke-linecap="round" stroke-linejoin="round" stroke-width="4"/>
        <path id="Path_16615" data-name="Path 16615" d="M18.934,10.647l6.7-.983v0M0,.648c5.769-1.3,16.646-1.663,25.631,9.013m.11-7.8-.11,7.8" transform="matrix(0.966, -0.259, 0.259, 0.966, 15.097, 6.662)" fill="none" stroke="#0560fd" stroke-linecap="round" stroke-linejoin="round" stroke-width="4"/>
        <path id="Path_16616" data-name="Path 16616" d="M18.934,10.647l6.7-.983v0M0,.648c5.769-1.3,16.646-1.663,25.631,9.013m.11-7.8-.11,7.8" transform="matrix(-0.966, 0.259, -0.259, -0.966, 42.718, 51.148)" fill="none" stroke="#0560fd" stroke-linecap="round" stroke-linejoin="round" stroke-width="4"/>
      </g>
    </g>
  </g>
</svg>
