<svg xmlns="http://www.w3.org/2000/svg" xmlns:xlink="http://www.w3.org/1999/xlink" width="53" height="53" viewBox="0 0 53 53">
  <defs>
    <clipPath id="clip-path">
      <path id="Rectangle_6247" data-name="Rectangle 6247" d="M12,0H41A12,12,0,0,1,53,12V41A12,12,0,0,1,41,53H0a0,0,0,0,1,0,0V12A12,12,0,0,1,12,0Z" transform="translate(1186.5 130.5)" fill="#fff"/>
    </clipPath>
  </defs>
  <g id="Mask_Group_33" data-name="Mask Group 33" transform="translate(-1186.5 -130.5)" clip-path="url(#clip-path)">
    <path id="Path_16785" data-name="Path 16785" d="M13.885,23.131,2.25,29.395l11.635,6.264m0-12.528,15.51,8.352L44.9,23.131m-31.02,0L2.25,16.866,29.395,2.25,56.54,16.866,44.9,23.131m0,0L56.54,29.395,44.9,35.659m0,0L56.54,41.923,29.395,56.54,2.25,41.923l11.635-6.264m31.02,0-15.51,8.352-15.51-8.352" transform="translate(1186.624 130.817)" fill="none" stroke="#0560fd" stroke-linecap="round" stroke-linejoin="round" stroke-width="4" opacity="0.2"/>
  </g>
</svg>
