<svg id="Condition_Agreement_Icon" data-name="Condition Agreement Icon" xmlns="http://www.w3.org/2000/svg" width="36" height="36" viewBox="0 0 36 36">
  <rect id="Rectangle_6511" data-name="Rectangle 6511" width="36" height="36" rx="6" fill="#0560fd" opacity="0"/>
  <path id="Path_17035" data-name="Path 17035" d="M18.5,13.327V10.9a3.133,3.133,0,0,0-3.15-3.115h-1.4A1.044,1.044,0,0,1,12.9,6.75V5.365A3.133,3.133,0,0,0,9.75,2.25H8M8,14.019h7M8,16.788h3.5M10.1,2.25H5.55A1.045,1.045,0,0,0,4.5,3.288V19.212A1.045,1.045,0,0,0,5.55,20.25h11.9a1.045,1.045,0,0,0,1.05-1.038V10.558A8.354,8.354,0,0,0,10.1,2.25Z" transform="translate(7 7.25)" fill="none" stroke="#707070" stroke-linecap="round" stroke-linejoin="round" stroke-width="1.5"/>
</svg>
