<svg id="Customer_Attribute_Iocn" data-name="Customer Attribute Iocn" xmlns="http://www.w3.org/2000/svg" width="36" height="36" viewBox="0 0 36 36">
  <rect id="Rectangle_6511" data-name="Rectangle 6511" width="36" height="36" rx="6" fill="#0560fd" opacity="0"/>
  <g id="Group_24106" data-name="Group 24106" transform="translate(-634.394 -646.869)">
    <path id="Path_17038" data-name="Path 17038" d="M18.979,10.617H25.1M2.985,23.248V17.124m0,0H9.109m-6.125,0,3.9,3.9A10.12,10.12,0,0,0,23.819,16.49M4.268,11.252A10.12,10.12,0,0,1,21.2,6.713l3.9,3.9m0-6.122v6.121" transform="translate(638.366 651.25)" fill="none" stroke="#707070" stroke-linecap="round" stroke-linejoin="round" stroke-width="1.5"/>
    <path id="Path_17039" data-name="Path 17039" d="M9.42,3.89A1.64,1.64,0,1,1,7.78,2.25,1.64,1.64,0,0,1,9.42,3.89ZM4.5,10.064a3.28,3.28,0,1,1,6.559,0,7.892,7.892,0,0,1-6.559,0Z" transform="translate(644.742 658.718)" fill="none" stroke="#707070" stroke-linecap="round" stroke-linejoin="round" stroke-width="1.5"/>
  </g>
</svg>
