<svg xmlns="http://www.w3.org/2000/svg" width="143" height="80" viewBox="0 0 143 80">
  <g id="Group_24423" data-name="Group 24423" transform="translate(-564.064 -331)">
    <g id="undraw_confidential_letter_w6ux" transform="translate(564.064 336.257)">
      <path id="Path_17143" data-name="Path 17143" d="M393.083,294.2H272.074a6.013,6.013,0,0,0-2.973.782,5.9,5.9,0,0,0-.626.409,6,6,0,0,0-2.436,4.827v62.708a6.031,6.031,0,0,0,6.035,6.018H393.083a6.032,6.032,0,0,0,6.035-6.018V300.213A6.032,6.032,0,0,0,393.083,294.2Zm5.4,68.726a5.4,5.4,0,0,1-5.4,5.384H272.074a5.4,5.4,0,0,1-5.4-5.384V300.213a5.416,5.416,0,0,1,3.741-5.124c.045-.013.086-.028.13-.041a5.412,5.412,0,0,1,1.528-.219H393.083a5.4,5.4,0,0,1,5.4,5.384Z" transform="translate(-266.039 -294.195)" fill="#3f3d56"/>
      <path id="Path_17156" data-name="Path 17156" d="M335.975,335.54a2.84,2.84,0,0,1-1.378-.358l-63.21-35.02a.321.321,0,0,1-.125-.434.316.316,0,0,1,.431-.126l63.21,35.019a2.2,2.2,0,0,0,2.109.019l64.251-34.117a.316.316,0,0,1,.429.133.321.321,0,0,1-.133.432l-64.251,34.117A2.841,2.841,0,0,1,335.975,335.54Z" transform="translate(-269.565 -297.847)" fill="#3f3d56"/>
      <path id="Path_17157" data-name="Path 17157" d="M305.113,469.309h-8.95a2.557,2.557,0,0,1,0-5.115h8.95a2.557,2.557,0,1,1,0,5.115Z" transform="translate(-284.793 -410.391)" fill="#e5efff"/>
      <path id="Path_17158" data-name="Path 17158" d="M315.661,496.31h-19.5a2.557,2.557,0,1,1,0-5.114h19.5a2.557,2.557,0,1,1,0,5.114Z" transform="translate(-284.793 -428.918)" fill="#e5efff"/>
      <circle id="Ellipse_1230" data-name="Ellipse 1230" cx="10.229" cy="10.229" r="10.229" transform="translate(56.153 27.143)" fill="#0560fd" opacity="0"/>
    </g>
    <g id="undraw_letter_re_8m03" transform="translate(663.221 331)">
      <path id="Path_17128" data-name="Path 17128" d="M352.1,347.759l40.41-8.717.525-.113a1.454,1.454,0,0,1,1.612,2.065L378.6,373.576a1.459,1.459,0,0,1-1.083.793,1.444,1.444,0,0,1-1.273-.436L365.1,362.183a.846.846,0,0,0-.622-.271.875.875,0,0,0-.779.453l-2.283,4.222a1.42,1.42,0,0,1-1.59.729l-.011,0a1.422,1.422,0,0,1-1.127-1.351l-.457-9.746a.889.889,0,0,0-.089-.35.947.947,0,0,0-.229-.283l-6.429-5.277a1.455,1.455,0,0,1,.614-2.546Zm-.247,2.1,6.429,5.277a1.437,1.437,0,0,1,.226.229l34.074-15.453a.508.508,0,0,1,.094-.033.582.582,0,0,1,.485,1.036l-28.017,20.58a1.4,1.4,0,0,1,.379.289l11.144,11.75a.872.872,0,0,0,1.414-.214l16.044-32.582a.874.874,0,0,0-.967-1.238l-.538.116-40.4,8.714a.874.874,0,0,0-.371,1.528Z" transform="translate(-350.952 -338.896)" fill="#0560fd"/>
      <path id="Path_17139" data-name="Path 17139" d="M352.1,347.759l40.41-8.717.525-.113a1.454,1.454,0,0,1,1.612,2.065L378.6,373.576a1.459,1.459,0,0,1-1.083.793,1.444,1.444,0,0,1-1.273-.436L365.1,362.183a.846.846,0,0,0-.622-.271.875.875,0,0,0-.779.453l-2.283,4.222a1.42,1.42,0,0,1-1.59.729l-.011,0a1.422,1.422,0,0,1-1.127-1.351l-.457-9.746a.889.889,0,0,0-.089-.35.947.947,0,0,0-.229-.283l-6.429-5.277a1.455,1.455,0,0,1,.614-2.546Zm-.247,2.1,6.429,5.277a1.437,1.437,0,0,1,.226.229,1.35,1.35,0,0,1,.155.243,1.392,1.392,0,0,1,.105.276v0a1.377,1.377,0,0,1,.046.3l.457,9.746a.844.844,0,0,0,.675.81h.006a.846.846,0,0,0,.956-.434l2.283-4.225a1.45,1.45,0,0,1,1.192-.757h0c.033,0,.066,0,.1,0a1.414,1.414,0,0,1,.66.164,1.394,1.394,0,0,1,.379.289l11.144,11.75a.872.872,0,0,0,1.414-.214l16.044-32.582a.874.874,0,0,0-.967-1.238l-.538.116-40.4,8.714a.874.874,0,0,0-.371,1.528Z" transform="translate(-350.952 -338.896)" fill="#3f3d56"/>
      <path id="Path_17140" data-name="Path 17140" d="M355.747,357.769l.24.529.148-.065v0l34.047-15.438-28.43,20.887h0l-.075.058.343.469.494-.364,28.017-20.58a.582.582,0,0,0-.485-1.036.506.506,0,0,0-.094.033l-34.074,15.453Z" transform="translate(-348.321 -341.244)" fill="#3f3d56"/>
    </g>
  </g>
</svg>
