<svg id="Prospect_-_Thumbs_icons" data-name="Prospect - Thumbs icons" xmlns="http://www.w3.org/2000/svg" width="36" height="36" viewBox="0 0 36 36">
  <g id="Rectangle_5344" data-name="Rectangle 5344" fill="#fff" stroke="#e9eaf2" stroke-width="1">
    <rect width="36" height="36" rx="6" stroke="none"/>
    <rect x="0.5" y="0.5" width="35" height="35" rx="5.5" fill="none"/>
  </g>
  <path id="Path_17030" data-name="Path 17030" d="M7.1,13.75H9.173M16.58,5.083a.552.552,0,0,0,.048.132,7.752,7.752,0,0,1-.069,7.2m.021-7.333a.549.549,0,0,1,.531-.667h.838a1.857,1.857,0,0,1,1.82,1.216,10.345,10.345,0,0,1-.286,7.027,1.872,1.872,0,0,1-1.771,1.091H16.74a.558.558,0,0,1-.462-.853q.148-.235.28-.48m.021-7.333H15.385a4.3,4.3,0,0,1-1.314-.2L11.2,3.954a4.3,4.3,0,0,0-1.314-.2H6.177A1.914,1.914,0,0,0,4.7,4.4a10.37,10.37,0,0,0-2.382,7.828,1.825,1.825,0,0,0,1.9,1.524H7.094a.789.789,0,0,1,.669,1.14A6.437,6.437,0,0,0,7.1,17.75a2.04,2.04,0,0,0,2.077,2,.68.68,0,0,0,.692-.667v-.563a3.884,3.884,0,0,1,.3-1.486,3.141,3.141,0,0,1,1.526-1.524,8.277,8.277,0,0,0,2.64-2.133,2.463,2.463,0,0,1,1.876-.96h.354" transform="translate(6.75 6.25)" fill="none" stroke="#707070" stroke-linecap="round" stroke-linejoin="round" stroke-width="1.5"/>
</svg>
