<svg id="Prospect_-_Thumbs_icons" data-name="Prospect - Thumbs icons" xmlns="http://www.w3.org/2000/svg" width="36" height="36" viewBox="0 0 36 36">
  <g id="Rectangle_5344" data-name="Rectangle 5344" fill="#fff" stroke="#e9eaf2" stroke-width="1">
    <rect width="36" height="36" rx="6" stroke="none"/>
    <rect x="0.5" y="0.5" width="35" height="35" rx="5.5" fill="none"/>
  </g>
  <path id="Path_17029" data-name="Path 17029" d="M6.3,9.583a2.461,2.461,0,0,0,1.875-.96A8.278,8.278,0,0,1,10.812,6.49a3.137,3.137,0,0,0,1.526-1.524,3.869,3.869,0,0,0,.3-1.486V2.917a.68.68,0,0,1,.692-.667,2.04,2.04,0,0,1,2.077,2,6.447,6.447,0,0,1-.667,2.86.789.789,0,0,0,.669,1.14h2.886a1.825,1.825,0,0,1,1.9,1.524A10.37,10.37,0,0,1,17.8,17.6a1.914,1.914,0,0,1-1.482.648H12.616a4.328,4.328,0,0,1-1.314-.2l-2.874-.924a4.3,4.3,0,0,0-1.314-.2H5.623m7.7-8.667H15.4M5.623,16.917c.077.182.16.36.249.535a.549.549,0,0,1-.483.8H4.551a1.857,1.857,0,0,1-1.82-1.216,10.345,10.345,0,0,1,.286-7.027A1.872,1.872,0,0,1,4.788,8.917H5.76a.558.558,0,0,1,.462.853,7.755,7.755,0,0,0-.6,7.147Z" transform="translate(6.75 7.75)" fill="none" stroke="#707070" stroke-linecap="round" stroke-linejoin="round" stroke-width="1.5"/>
</svg>
