<svg xmlns="http://www.w3.org/2000/svg" width="94" height="74" viewBox="0 0 94 74">
  <g id="undraw_throw_away_re_x60k" transform="translate(-467 -156.619)">
    <rect id="Rectangle_21" data-name="Rectangle 21" width="94" height="0.419" transform="translate(467 230.199)" fill="#3f3d56"/>
    <g id="Group_24417" data-name="Group 24417" transform="translate(479.755 156.619)">
      <g id="undraw_warning_re_eoyh">
        <path id="Path_17069" data-name="Path 17069" d="M141.489,297.087l-62.677.02a8.735,8.735,0,0,1-7.545-4.093,7.694,7.694,0,0,1,0-8.191l31.319-53.618a8.994,8.994,0,0,1,15.087,0l31.362,53.6a7.69,7.69,0,0,1,0,8.185,8.734,8.734,0,0,1-7.542,4.1h0Zm-70.616-8.169c0,1.28,6.916-1.479,7.633-.312,1.433,2.333-2.559,7.764.306,7.763,0,0,68.106-1.415,69.538-3.749a7,7,0,0,0,0-7.452l-31.362-53.6a7.944,7.944,0,0,0-6.86-3.717c-2.863,0-39.252,59.791-39.252,61.071h0Z" transform="translate(-70.085 -227.107)" fill="#3f3d56"/>
      </g>
      <g id="Group_24422" data-name="Group 24422" transform="translate(36.983 23.625)">
        <circle id="Ellipse_1228" data-name="Ellipse 1228" cx="4.312" cy="4.312" r="4.312" transform="translate(1.677 26.496)" fill="#fbe6e6"/>
        <path id="Path_17085" data-name="Path 17085" d="M388.694,345.441h-5.4L380.035,329.5a5.989,5.989,0,1,1,11.919-.007Z" transform="translate(-380.005 -322.909)" fill="#fbe6e6"/>
      </g>
    </g>
  </g>
</svg>
