<svg id="Basic_Info_Icon" data-name="Basic Info Icon" xmlns="http://www.w3.org/2000/svg" width="36" height="36" viewBox="0 0 36 36">
  <rect id="Rectangle_6515" data-name="Rectangle 6515" width="36" height="36" rx="6" fill="#0560fd"/>
  <path id="Path_16989" data-name="Path 16989" d="M14.019,8.7h3.462m-3.462,2.8h3.462m-3.462,2.8h3.462M4.327,18.5H18.173a2.089,2.089,0,0,0,2.077-2.1V6.6a2.089,2.089,0,0,0-2.077-2.1H4.327A2.089,2.089,0,0,0,2.25,6.6v9.8a2.089,2.089,0,0,0,2.077,2.1ZM9.865,9.05A1.731,1.731,0,1,1,8.135,7.3,1.74,1.74,0,0,1,9.865,9.05Zm1.194,5.914a6.178,6.178,0,0,1-5.85,0,3.1,3.1,0,0,1,5.85,0Z" transform="translate(6.75 7)" fill="none" stroke="#fff" stroke-linecap="round" stroke-linejoin="round" stroke-width="1.5"/>
</svg>
