<svg xmlns="http://www.w3.org/2000/svg" width="36" height="36" viewBox="0 0 36 36">
  <g id="Group_23693" data-name="Group 23693" transform="translate(0.509)">
    <g id="Rectangle_6764" data-name="Rectangle 6764" transform="translate(-0.509)" fill="#f2f3f7" stroke="#d7d8df" stroke-width="1" opacity="0">
      <rect width="36" height="36" rx="6" stroke="none"/>
      <rect x="0.5" y="0.5" width="35" height="35" rx="5.5" fill="none"/>
    </g>
    <path id="Path_16994" data-name="Path 16994" d="M14.019,8.7h3.462m-3.462,2.8h3.462m-3.462,2.8h3.462M4.327,18.5H18.173a2.089,2.089,0,0,0,2.077-2.1V6.6a2.089,2.089,0,0,0-2.077-2.1H4.327A2.089,2.089,0,0,0,2.25,6.6v9.8a2.089,2.089,0,0,0,2.077,2.1ZM9.865,9.05A1.731,1.731,0,1,1,8.135,7.3,1.74,1.74,0,0,1,9.865,9.05Zm1.194,5.914a6.178,6.178,0,0,1-5.85,0,3.1,3.1,0,0,1,5.85,0Z" transform="translate(6.241 6.5)" fill="none" stroke="#707070" stroke-linecap="round" stroke-linejoin="round" stroke-width="1.5"/>
  </g>
</svg>
