<svg xmlns="http://www.w3.org/2000/svg" width="36" height="36" viewBox="0 0 36 36">
  <g id="Sales_Materials_Icon" data-name="Sales Materials Icon" transform="translate(0.509)">
    <g id="Rectangle_6761" data-name="Rectangle 6761" transform="translate(-0.509)" fill="#f2f3f7" stroke="#d7d8df" stroke-width="1" opacity="0">
      <rect width="36" height="36" rx="6" stroke="none"/>
      <rect x="0.5" y="0.5" width="35" height="35" rx="5.5" fill="none"/>
    </g>
    <path id="Path_16991" data-name="Path 16991" d="M3.533,9.228a1.981,1.981,0,0,1,.3-.024H17.849a1.981,1.981,0,0,1,.3.024m-14.621,0a2.038,2.038,0,0,0-1.669,2.311l.759,5.455A2.011,2.011,0,0,0,4.6,18.75H17.091a2.011,2.011,0,0,0,1.973-1.756l.759-5.455a2.038,2.038,0,0,0-1.669-2.311m-14.621,0V5.8A2.02,2.02,0,0,1,5.527,3.75H8.964a1.312,1.312,0,0,1,.939.4l1.88,1.927a1.312,1.312,0,0,0,.939.4H16.16a2.02,2.02,0,0,1,1.994,2.045v.705" transform="translate(6.646 6.25)" fill="none" stroke="#707070" stroke-linecap="round" stroke-linejoin="round" stroke-width="1.5"/>
  </g>
</svg>
