<svg id="Service_Workflow_Icon" data-name="Service Workflow Icon" xmlns="http://www.w3.org/2000/svg" width="36" height="36" viewBox="0 0 36 36">
  <g id="Rectangle_6111" data-name="Rectangle 6111" fill="#f2f3f7" stroke="#d7d8df" stroke-width="1" opacity="0">
    <rect width="36" height="36" rx="6" stroke="none"/>
    <rect x="0.5" y="0.5" width="35" height="35" rx="5.5" fill="none"/>
  </g>
  <path id="Path_16635" data-name="Path 16635" d="M10.7,14.16l5.374,5.374a2.444,2.444,0,1,0,3.457-3.457L14.116,10.66M10.7,14.16,13,11.367a2.241,2.241,0,0,1,1.114-.706M10.7,14.16,6.412,19.371a2.349,2.349,0,1,1-3.306-3.306l6.3-5.19m4.709-.215a4.433,4.433,0,0,1,1.607-.129,4.148,4.148,0,0,0,4.135-5.841l-3.02,3.021a2.769,2.769,0,0,1-2.074-2.074l3.02-3.02a4.148,4.148,0,0,0-5.841,4.135,3.1,3.1,0,0,1-.833,2.719l-.094.078M9.408,10.875,5.623,7.089h-1.3L2.25,3.633,3.632,2.25,7.089,4.324v1.3L11.016,9.55M9.408,10.874,11.016,9.55m6.1,7.564-2.42-2.42M4.662,17.805h.007v.007H4.662Z" transform="translate(6.753 6.75)" fill="none" stroke="#707070" stroke-linecap="round" stroke-linejoin="round" stroke-width="1.5"/>
</svg>
