<svg xmlns="http://www.w3.org/2000/svg" xmlns:xlink="http://www.w3.org/1999/xlink" width="48" height="48" viewBox="0 0 48 48">
  <defs>
    <filter id="Rectangle_6113" x="0" y="0" width="48" height="48" filterUnits="userSpaceOnUse">
      <feOffset input="SourceAlpha"/>
      <feGaussianBlur stdDeviation="2" result="blur"/>
      <feFlood flood-opacity="0.161"/>
      <feComposite operator="in" in2="blur"/>
      <feComposite in="SourceGraphic"/>
    </filter>
  </defs>
  <g id="Tasks_Icon" data-name="Tasks Icon" transform="translate(6 6)">
    <g transform="matrix(1, 0, 0, 1, -6, -6)" filter="url(#Rectangle_6113)">
      <rect id="Rectangle_6113-2" data-name="Rectangle 6113" width="36" height="36" rx="6" transform="translate(6 6)" fill="#0560fd"/>
    </g>
    <path id="Path_17007" data-name="Path 17007" d="M9,5H7A2,2,0,0,0,5,7V19a2,2,0,0,0,2,2H17a2,2,0,0,0,2-2V7a2,2,0,0,0-2-2H15M9,5a2,2,0,0,0,2,2h2a2,2,0,0,0,2-2M9,5a2,2,0,0,1,2-2h2a2,2,0,0,1,2,2M9,14l2,2,4-4" transform="translate(6 6)" fill="none" stroke="#fff" stroke-linecap="round" stroke-linejoin="round" stroke-width="1.5"/>
  </g>
</svg>
