<svg xmlns="http://www.w3.org/2000/svg" width="36" height="36" viewBox="0 0 36 36">
  <g id="Group_23842" data-name="Group 23842" transform="translate(0.509)">
    <rect id="Rectangle_6767" data-name="Rectangle 6767" width="36" height="36" rx="6" transform="translate(-0.509)" fill="#0560fd"/>
    <path id="Path_16996" data-name="Path 16996" d="M18.75,6.058c0,2.1-3.358,3.808-7.5,3.808s-7.5-1.7-7.5-3.808m15,0c0-2.1-3.358-3.808-7.5-3.808s-7.5,1.7-7.5,3.808m15,0V16.442c0,2.1-3.358,3.808-7.5,3.808s-7.5-1.7-7.5-3.808V6.058m15,0V9.519m-15-3.462V9.519m15,0v3.462c0,2.1-3.358,3.808-7.5,3.808s-7.5-1.7-7.5-3.808V9.519m15,0c0,2.1-3.358,3.808-7.5,3.808s-7.5-1.7-7.5-3.808" transform="translate(6.741 6.75)" fill="none" stroke="#fff" stroke-linecap="round" stroke-linejoin="round" stroke-width="1.5"/>
  </g>
</svg>
