<svg xmlns="http://www.w3.org/2000/svg" width="36" height="36" viewBox="0 0 36 36">
  <g id="Group_23842" data-name="Group 23842" transform="translate(0.509)">
    <g id="Rectangle_6767" data-name="Rectangle 6767" transform="translate(-0.509)" fill="#f2f3f7" stroke="#d7d8df" stroke-width="1" opacity="0">
      <rect width="36" height="36" rx="6" stroke="none"/>
      <rect x="0.5" y="0.5" width="35" height="35" rx="5.5" fill="none"/>
    </g>
    <path id="Path_16996" data-name="Path 16996" d="M18.75,6.058c0,2.1-3.358,3.808-7.5,3.808s-7.5-1.7-7.5-3.808m15,0c0-2.1-3.358-3.808-7.5-3.808s-7.5,1.7-7.5,3.808m15,0V16.442c0,2.1-3.358,3.808-7.5,3.808s-7.5-1.7-7.5-3.808V6.058m15,0V9.519m-15-3.462V9.519m15,0v3.462c0,2.1-3.358,3.808-7.5,3.808s-7.5-1.7-7.5-3.808V9.519m15,0c0,2.1-3.358,3.808-7.5,3.808s-7.5-1.7-7.5-3.808" transform="translate(6.741 6.75)" fill="none" stroke="#707070" stroke-linecap="round" stroke-linejoin="round" stroke-width="1.5"/>
  </g>
</svg>
