<svg id="Condition_Icon" data-name="Condition Icon" xmlns="http://www.w3.org/2000/svg" width="36" height="36" viewBox="0 0 36 36">
  <rect id="Rectangle_6514" data-name="Rectangle 6514" width="36" height="36" rx="6" fill="#0560fd"/>
  <path id="Path_16988" data-name="Path 16988" d="M18.5,13.327V10.9a3.133,3.133,0,0,0-3.15-3.115h-1.4A1.044,1.044,0,0,1,12.9,6.75V5.365A3.133,3.133,0,0,0,9.75,2.25H8M8.7,15.4V16.1m2.8-2.769V16.1m2.8-4.846V16.1M10.1,2.25H5.55A1.045,1.045,0,0,0,4.5,3.288V19.212A1.045,1.045,0,0,0,5.55,20.25h11.9a1.045,1.045,0,0,0,1.05-1.038V10.558A8.354,8.354,0,0,0,10.1,2.25Z" transform="translate(6.5 6.75)" fill="none" stroke="#fff" stroke-linecap="round" stroke-linejoin="round" stroke-width="1.5"/>
</svg>
