<svg xmlns="http://www.w3.org/2000/svg" width="36" height="36" viewBox="0 0 36 36">
  <g id="Group_23691" data-name="Group 23691" transform="translate(0.509)">
    <rect id="Rectangle_6762" data-name="Rectangle 6762" width="36" height="36" rx="6" transform="translate(-0.509)" fill="none"/>
    <path id="Path_16992" data-name="Path 16992" d="M14.019,18.232a8.509,8.509,0,0,0,6.227-.548,3.893,3.893,0,0,0-2.608-3.863,3.762,3.762,0,0,0-4.345,1.509m.726,2.9v0a6.1,6.1,0,0,0-.726-2.9m.726,2.9v.1a11.214,11.214,0,0,1-11.769,0v-.1a6,6,0,0,1,4.422-5.835,5.834,5.834,0,0,1,6.621,2.936M11.25,6.187a3.116,3.116,0,1,1-6.231,0,3.116,3.116,0,1,1,6.231,0Zm7.615,2.125a2.424,2.424,0,1,1-2.423-2.479A2.452,2.452,0,0,1,18.865,8.312Z" transform="translate(6.242 7)" fill="none" stroke="#707070" stroke-linecap="round" stroke-linejoin="round" stroke-width="1.5"/>
  </g>
</svg>
