<svg id="Contract" xmlns="http://www.w3.org/2000/svg" width="24" height="24" viewBox="0 0 24 24">
  <rect id="Rectangle_5344" data-name="Rectangle 5344" width="24" height="24" rx="6" fill="#fff" opacity="0"/>
  <path id="Path_17005" data-name="Path 17005" d="M9,2.25H5.4a.858.858,0,0,0-.9.808V15.442a.858.858,0,0,0,.9.808H15.6a.858.858,0,0,0,.9-.808V8.981M9,2.25h.3c3.976,0,7.2,2.893,7.2,6.462v.269M9,2.25a2.573,2.573,0,0,1,2.7,2.423V5.75a.858.858,0,0,0,.9.808h1.2a2.573,2.573,0,0,1,2.7,2.423M8.1,11.4l1.8,1.615,3-3.769" transform="translate(2 3.25)" fill="none" stroke="#707070" stroke-linecap="round" stroke-linejoin="round" stroke-width="1.5"/>
</svg>
