<svg xmlns="http://www.w3.org/2000/svg" xmlns:xlink="http://www.w3.org/1999/xlink" width="48" height="48" viewBox="0 0 48 48">
  <defs>
    <filter id="Rectangle_6196" x="0" y="0" width="48" height="48" filterUnits="userSpaceOnUse">
      <feOffset input="SourceAlpha"/>
      <feGaussianBlur stdDeviation="2" result="blur"/>
      <feFlood flood-opacity="0.161"/>
      <feComposite operator="in" in2="blur"/>
      <feComposite in="SourceGraphic"/>
    </filter>
  </defs>
  <g id="Customers_Icon" data-name="Customers Icon" transform="translate(6 6)">
    <g transform="matrix(1, 0, 0, 1, -6, -6)" filter="url(#Rectangle_6196)">
      <rect id="Rectangle_6196-2" data-name="Rectangle 6196" width="36" height="36" rx="6" transform="translate(6 6)" fill="#0560fd"/>
    </g>
    <path id="Path_16826" data-name="Path 16826" d="M14.673,19.128a8.957,8.957,0,0,0,6.573-.58,4.122,4.122,0,0,0-2.753-4.09,3.965,3.965,0,0,0-4.587,1.6m.767,3.073v0a6.48,6.48,0,0,0-.766-3.07m.766,3.073v.106a11.806,11.806,0,0,1-12.423,0v-.109a6.348,6.348,0,0,1,4.667-6.178,6.152,6.152,0,0,1,6.989,3.108M11.75,6.375A3.333,3.333,0,0,1,8.461,9.75,3.333,3.333,0,0,1,5.173,6.375,3.333,3.333,0,0,1,8.461,3,3.333,3.333,0,0,1,11.75,6.375Zm8.038,2.25A2.558,2.558,0,1,1,17.23,6,2.592,2.592,0,0,1,19.788,8.625Z" transform="translate(5.751 6)" fill="none" stroke="#fff" stroke-linecap="round" stroke-linejoin="round" stroke-width="1.5"/>
  </g>
</svg>
