<svg id="Edit_-_Icon_Button" data-name="Edit - Icon Button" xmlns="http://www.w3.org/2000/svg" width="36" height="36" viewBox="0 0 36 36">
  <g id="Rectangle_5344" data-name="Rectangle 5344" fill="#fff" stroke="#e9eaf2" stroke-width="1">
    <rect width="36" height="36" rx="6" stroke="none"/>
    <rect x="0.5" y="0.5" width="35" height="35" rx="5.5" fill="none"/>
  </g>
  <path id="Path_16947" data-name="Path 16947" d="M14.829,4.159l1.44-1.44a1.6,1.6,0,0,1,2.263,2.263L9.47,14.043a3.84,3.84,0,0,1-1.619.964L5.56,15.69,6.243,13.4a3.84,3.84,0,0,1,.964-1.619l7.622-7.621Zm0,0L17.08,6.41M15.8,12.276V16.33a1.92,1.92,0,0,1-1.92,1.92H4.92A1.92,1.92,0,0,1,3,16.33V7.37A1.92,1.92,0,0,1,4.92,5.45H8.973" transform="translate(7 7.75)" fill="none" stroke="#707070" stroke-linecap="round" stroke-linejoin="round" stroke-width="1.5"/>
</svg>
