<svg id="Group_23767" data-name="Group 23767" xmlns="http://www.w3.org/2000/svg" width="36" height="36" viewBox="0 0 36 36">
  <g id="Rectangle_5344" data-name="Rectangle 5344" fill="none" stroke="#e9eaf2" stroke-width="1" opacity="0">
    <path d="M6,0H36a0,0,0,0,1,0,0V36a0,0,0,0,1,0,0H6a6,6,0,0,1-6-6V6A6,6,0,0,1,6,0Z" stroke="none"/>
    <path d="M6,.5H35a.5.5,0,0,1,.5.5V35a.5.5,0,0,1-.5.5H6A5.5,5.5,0,0,1,.5,30V6A5.5,5.5,0,0,1,6,.5Z" fill="none"/>
  </g>
  <path id="Path_16998" data-name="Path 16998" d="M3,8l7.89,5.26a2,2,0,0,0,2.22,0L21,8M5,19H19a2,2,0,0,0,2-2V7a2,2,0,0,0-2-2H5A2,2,0,0,0,3,7V17A2,2,0,0,0,5,19Z" transform="translate(6 6)" fill="none" stroke="#707070" stroke-linecap="round" stroke-linejoin="round" stroke-width="1.5"/>
</svg>
