<svg xmlns="http://www.w3.org/2000/svg" width="15.505" height="11.5" viewBox="0 0 15.505 11.5">
  <g id="Group_23671" data-name="Group 23671" transform="translate(0.752 0.75)">
    <path id="Path_16980" data-name="Path 16980" d="M2.02,9.715a.645.645,0,0,1,0-.426A7.317,7.317,0,0,1,8.984,4.5a7.319,7.319,0,0,1,6.963,4.785.637.637,0,0,1,0,.426A7.316,7.316,0,0,1,8.984,14.5,7.319,7.319,0,0,1,2.021,9.715Z" transform="translate(-1.984 -4.5)" fill="none" stroke="#0560fd" stroke-linecap="round" stroke-linejoin="round" stroke-width="1.5"/>
    <path id="Path_16981" data-name="Path 16981" d="M13.185,11.093A2.093,2.093,0,1,1,11.093,9a2.093,2.093,0,0,1,2.093,2.093Z" transform="translate(-4.092 -6.093)" fill="none" stroke="#0560fd" stroke-linecap="round" stroke-linejoin="round" stroke-width="1.5"/>
  </g>
</svg>
