<svg id="Group_23682" data-name="Group 23682" xmlns="http://www.w3.org/2000/svg" width="24" height="24" viewBox="0 0 24 24">
  <g id="Rectangle_6110" data-name="Rectangle 6110" fill="#fff" stroke="#0560fd" stroke-width="1" opacity="0">
    <rect width="24" height="24" rx="6" stroke="none"/>
    <rect x="0.5" y="0.5" width="23" height="23" rx="5.5" fill="none"/>
  </g>
  <g id="Group_23758" data-name="Group 23758" transform="translate(5 7)">
    <path id="Path_17018" data-name="Path 17018" d="M9,3a32.185,32.185,0,0,1,5.389.452A.738.738,0,0,1,15,4.183v.7a1.5,1.5,0,0,1-.439,1.061L10.939,9.561a1.5,1.5,0,0,0-.439,1.061v1.951a1.5,1.5,0,0,1-.83,1.342L7.5,15V10.621a1.5,1.5,0,0,0-.439-1.061L3.439,5.939A1.5,1.5,0,0,1,3,4.879v-.7a.738.738,0,0,1,.611-.731A32.213,32.213,0,0,1,9,3Z" transform="translate(-2 -4)" fill="none" stroke="#0560fd" stroke-linecap="round" stroke-linejoin="round" stroke-width="1.5"/>
  </g>
</svg>
