<svg id="Sales_History_Icon" data-name="Sales History Icon" xmlns="http://www.w3.org/2000/svg" width="36" height="36" viewBox="0 0 36 36">
  <rect id="Rectangle_6507" data-name="Rectangle 6507" width="36" height="36" rx="6" fill="#0560fd"/>
  <g id="Group_23756" data-name="Group 23756" transform="translate(5965.751 -3410.008)">
    <path id="Vector" d="M7.457,3.729A3.729,3.729,0,1,1,3.729,0,3.729,3.729,0,0,1,7.457,3.729Z" transform="translate(-5951.479 3427.664)" fill="none" stroke="#fff" stroke-linecap="round" stroke-linejoin="round" stroke-width="1.5"/>
    <path id="Vector-2" data-name="Vector" d="M1.165,0V.867a.923.923,0,0,1-.457.8L0,2.1" transform="translate(-5948.676 3430.195)" fill="none" stroke="#fff" stroke-linecap="round" stroke-linejoin="round" stroke-width="1.5"/>
    <path id="Vector-3" data-name="Vector" d="M5.257,13.415h5.485c3.675,0,4.333-1.543,4.525-3.421l.686-5.749C16.2,1.907,15.56,0,11.657,0H4.343C.44,0-.2,1.907.046,4.245L.732,9.994C.924,11.872,1.582,13.415,5.257,13.415Z" transform="translate(-5955.751 3424.594)" fill="none" stroke="#fff" stroke-linecap="round" stroke-linejoin="round" stroke-width="1.5"/>
    <path id="Vector-4" data-name="Vector" d="M0,5.278v-.9A4.4,4.4,0,0,1,3.643.02,4.1,4.1,0,0,1,8.075,4.2V5.483" transform="translate(-5951.789 3419.008)" fill="none" stroke="#fff" stroke-linecap="round" stroke-linejoin="round" stroke-width="1.5"/>
  </g>
</svg>
