<svg xmlns="http://www.w3.org/2000/svg" width="36" height="36" viewBox="0 0 36 36">
  <g id="Group_23686" data-name="Group 23686" transform="translate(0.509)">
    <g id="Rectangle_6756" data-name="Rectangle 6756" transform="translate(-0.509)" fill="#f2f3f7" stroke="#d7d8df" stroke-width="1" opacity="0">
      <rect width="36" height="36" rx="6" stroke="none"/>
      <rect x="0.5" y="0.5" width="35" height="35" rx="5.5" fill="none"/>
    </g>
    <g id="Group_23726" data-name="Group 23726" transform="translate(5965.242 -3410.008)">
      <path id="Vector" d="M7.457,3.729A3.729,3.729,0,1,1,3.729,0,3.729,3.729,0,0,1,7.457,3.729Z" transform="translate(-5951.479 3427.664)" fill="none" stroke="#707070" stroke-linecap="round" stroke-linejoin="round" stroke-width="1.5"/>
      <path id="Vector-2" data-name="Vector" d="M1.165,0V.867a.923.923,0,0,1-.457.8L0,2.1" transform="translate(-5948.676 3430.195)" fill="none" stroke="#707070" stroke-linecap="round" stroke-linejoin="round" stroke-width="1.5"/>
      <path id="Vector-3" data-name="Vector" d="M5.257,13.415h5.485c3.675,0,4.333-1.543,4.525-3.421l.686-5.749C16.2,1.907,15.56,0,11.657,0H4.343C.44,0-.2,1.907.046,4.245L.732,9.994C.924,11.872,1.582,13.415,5.257,13.415Z" transform="translate(-5955.751 3424.594)" fill="none" stroke="#707070" stroke-linecap="round" stroke-linejoin="round" stroke-width="1.5"/>
      <path id="Vector-4" data-name="Vector" d="M0,5.278v-.9A4.4,4.4,0,0,1,3.643.02,4.1,4.1,0,0,1,8.075,4.2V5.483" transform="translate(-5951.789 3419.008)" fill="none" stroke="#707070" stroke-linecap="round" stroke-linejoin="round" stroke-width="1.5"/>
    </g>
  </g>
</svg>
