<svg id="Overview_Icon" data-name="Overview Icon" xmlns="http://www.w3.org/2000/svg" width="36" height="36" viewBox="0 0 36 36">
  <rect id="Rectangle_6511" data-name="Rectangle 6511" width="36" height="36" rx="6" fill="#0560fd" opacity="0"/>
  <path id="Path_16985" data-name="Path 16985" d="M8.6,11.25h3.462M8.6,14.019h3.462M8.6,16.788h3.462m2.769.692H16.9A2.077,2.077,0,0,0,18.981,15.4V5.811a2.009,2.009,0,0,0-1.824-2.023q-.518-.043-1.037-.074m-5.355,0a2.07,2.07,0,0,0-.092.613.693.693,0,0,0,.692.692h4.154a.692.692,0,0,0,.692-.692,2.077,2.077,0,0,0-.092-.613m-5.354,0A2.078,2.078,0,0,1,12.75,2.25h1.385a2.077,2.077,0,0,1,1.985,1.464m-5.354,0q-.521.032-1.038.074A2.009,2.009,0,0,0,7.9,5.811V7.788m0,0H4.788A1.039,1.039,0,0,0,3.75,8.827V19.212A1.039,1.039,0,0,0,4.788,20.25h9a1.039,1.039,0,0,0,1.038-1.038V8.827a1.039,1.039,0,0,0-1.038-1.038ZM6.519,11.25h.007v.007H6.519Zm0,2.769h.007v.007H6.519Zm0,2.769h.007V16.8H6.519Z" transform="translate(6.25 6.75)" fill="none" stroke="#707070" stroke-linecap="round" stroke-linejoin="round" stroke-width="1.5"/>
</svg>
