<svg id="Trade_Assest_Icon" data-name="Trade Assest Icon" xmlns="http://www.w3.org/2000/svg" width="36" height="36" viewBox="0 0 36 36">
  <rect id="Rectangle_6508" data-name="Rectangle 6508" width="36" height="36" rx="6" fill="#0560fd"/>
  <g id="Group_23755" data-name="Group 23755" transform="translate(-506.62 -502)">
    <path id="Vector" d="M0,11V5A12.145,12.145,0,0,1,.094,3.344C.409.712,1.731,0,5.339,0h5.33c3.6,0,4.93.712,5.237,3.344A10.915,10.915,0,0,1,16,5v6a12.346,12.346,0,0,1-.094,1.664C15.591,15.288,14.269,16,10.661,16H5.339C1.74,16,.409,15.288.1,12.664A11.018,11.018,0,0,1,0,11Z" transform="translate(516.62 512)" fill="none" stroke="#fff" stroke-linecap="round" stroke-linejoin="round" stroke-width="1.5"/>
    <path id="Vector-2" data-name="Vector" d="M15.287,0H0" transform="translate(516.738 517.536)" fill="none" stroke="#fff" stroke-linecap="round" stroke-linejoin="round" stroke-width="1.5"/>
  </g>
</svg>
