<svg id="Vacaction_Icon" data-name="Vacaction Icon" xmlns="http://www.w3.org/2000/svg" width="36" height="36" viewBox="0 0 36 36">
  <rect id="Rectangle_6510" data-name="Rectangle 6510" width="36" height="36" rx="6" fill="#0560fd"/>
  <g id="noun-vacation-3281933" transform="translate(9 8.88)">
    <path id="Path_16983" data-name="Path 16983" d="M421.583,19.788h.634a1.1,1.1,0,0,0,.118.283l-.448.448a.34.34,0,0,0,.226.576.358.358,0,0,0,.24-.1l.476-.448a1.242,1.242,0,0,0,.283.118V21.3h0a.337.337,0,0,0,.673,0v-.634a1.309,1.309,0,0,0,.283-.118l.451.448a.337.337,0,0,0,.458-.476l-.451-.448a1.142,1.142,0,0,0,.115-.283h.637a.337.337,0,1,0,0-.673h-.637a1.142,1.142,0,0,0-.115-.283l.451-.451a.335.335,0,0,0-.476-.473l-.451.448a1.144,1.144,0,0,0-.283-.115V17.6a.337.337,0,1,0-.673,0v.637a1.143,1.143,0,0,0-.283.115l-.448-.448a.337.337,0,0,0-.476,0,.329.329,0,0,0,0,.473l.448.451a1.312,1.312,0,0,0-.118.283h-.634a.337.337,0,1,0,0,.673Zm1.454.1a.557.557,0,1,1,.383.161.583.583,0,0,1-.383-.161Z" transform="translate(-407.693 -17.267)" fill="#fff" stroke="#fff" stroke-width="0.3"/>
    <path id="Path_16984" data-name="Path 16984" d="M102.941,52.387h-3.42V48.411h3.536a.493.493,0,0,0,.352-.148.512.512,0,0,0,.146-.359,4.668,4.668,0,0,0-1.157-3.078,4.5,4.5,0,0,0-2.877-1.507v-.156a.513.513,0,0,0-.125-.392.491.491,0,0,0-.739,0,.513.513,0,0,0-.126.392v.156a4.5,4.5,0,0,0-2.877,1.507A4.668,4.668,0,0,0,94.5,47.9a.512.512,0,0,0,.146.359.493.493,0,0,0,.352.148h3.536v3.976H90.087c-.757-2.158-2.478-8.091.286-12.057,1.948.426,1.991,2.789,1.991,2.9h0a.509.509,0,0,0,.249.439.49.49,0,0,0,.5,0,.509.509,0,0,0,.249-.439,4.144,4.144,0,0,0-1.874-3.55,3.343,3.343,0,0,1,2.647.949.493.493,0,0,0,.349.151.525.525,0,0,0,.355-.151.547.547,0,0,0,0-.717,4.055,4.055,0,0,0-3.791-1.16A3.228,3.228,0,0,1,93.56,37.53h0a.5.5,0,0,0,.431-.254.515.515,0,0,0,0-.507.5.5,0,0,0-.431-.254,4.2,4.2,0,0,0-3.176,1.451,4.242,4.242,0,0,0-2.827-2.125.485.485,0,0,0-.369.057.5.5,0,0,0-.224.3.515.515,0,0,0,.066.381.5.5,0,0,0,.31.223c.09.043,1.922.5,2.282,2.093a3.553,3.553,0,0,0-1.956-.16,3.593,3.593,0,0,0-1.75.9.515.515,0,0,0-.074.435.5.5,0,0,0,.288.329.489.489,0,0,0,.432-.025,2.6,2.6,0,0,1,2.88-.459c-2.763,4.154-1.271,9.969-.413,12.461H86.053a.5.5,0,0,0-.431.254.515.515,0,0,0,0,.507.5.5,0,0,0,.431.254h16.888a.5.5,0,0,0,.431-.254.515.515,0,0,0,0-.507.5.5,0,0,0-.431-.254Zm-7.412-5a3.618,3.618,0,0,1,1-2.038,3.5,3.5,0,0,1,2-1.015,2.492,2.492,0,0,1,.492-.043,2.544,2.544,0,0,1,.5.043,3.5,3.5,0,0,1,2,1.014,3.613,3.613,0,0,1,1,2.039Z" transform="translate(-85.555 -35.4)" fill="#fff" stroke="#fff" stroke-width="0.3"/>
  </g>
</svg>
