<svg xmlns="http://www.w3.org/2000/svg" width="36" height="36" viewBox="0 0 36 36">
  <g id="Group_22698" data-name="Group 22698" transform="translate(56 -528)">
    <g id="Rectangle_6196" data-name="Rectangle 6196" transform="translate(-56 528)" fill="#f2f3f7" stroke="#d7d8df" stroke-width="1" opacity="0">
      <rect width="36" height="36" rx="6" stroke="none"/>
      <rect x="0.5" y="0.5" width="35" height="35" rx="5.5" fill="none"/>
    </g>
    <path id="Path_16826" data-name="Path 16826" d="M12.057,15.544a7.169,7.169,0,0,0,5.189-.451,3.207,3.207,0,0,0-2.173-3.181,3.154,3.154,0,0,0-3.621,1.242m.605,2.39v0a4.98,4.98,0,0,0-.6-2.388m.6,2.39v.082a9.44,9.44,0,0,1-9.807,0v-.085a4.949,4.949,0,0,1,3.685-4.805,4.883,4.883,0,0,1,5.518,2.418m-1.7-7.529A2.6,2.6,0,1,1,7.153,3,2.611,2.611,0,0,1,9.749,5.625ZM16.1,7.375a2.019,2.019,0,1,1-2.019-2.042A2.031,2.031,0,0,1,16.1,7.375Z" transform="translate(-47.749 536.5)" fill="none" stroke="#707070" stroke-linecap="round" stroke-linejoin="round" stroke-width="1"/>
  </g>
</svg>
