<svg xmlns="http://www.w3.org/2000/svg" xmlns:xlink="http://www.w3.org/1999/xlink" width="48" height="48" viewBox="0 0 48 48">
  <defs>
    <filter id="Rectangle_6116" x="0" y="0" width="48" height="48" filterUnits="userSpaceOnUse">
      <feOffset input="SourceAlpha"/>
      <feGaussianBlur stdDeviation="2" result="blur"/>
      <feFlood flood-opacity="0.161"/>
      <feComposite operator="in" in2="blur"/>
      <feComposite in="SourceGraphic"/>
    </filter>
  </defs>
  <g id="Delegation_Icon" data-name="Delegation Icon" transform="translate(6 6)">
    <g transform="matrix(1, 0, 0, 1, -6, -6)" filter="url(#Rectangle_6116)">
      <rect id="Rectangle_6116-2" data-name="Rectangle 6116" width="36" height="36" rx="6" transform="translate(6 6)" fill="#0560fd"/>
    </g>
    <path id="Path_16639" data-name="Path 16639" d="M15.174,15.9a7.538,7.538,0,0,0,3.07-.389,2.428,2.428,0,0,0-1.217-2.3A2.484,2.484,0,0,0,14.4,13.3m.771,2.6v.025a4.711,4.711,0,0,1-.03.541,9.954,9.954,0,0,1-9.786,0,4.867,4.867,0,0,1-.03-.566m9.846,0A4.808,4.808,0,0,0,14.4,13.3m0,0a4.954,4.954,0,0,0-8.3,0m0,0a2.484,2.484,0,0,0-2.624-.094,2.428,2.428,0,0,0-1.217,2.3,7.449,7.449,0,0,0,3.069.387M6.1,13.3A4.808,4.808,0,0,0,5.328,15.9m7.384-9.714A2.462,2.462,0,1,1,10.25,3.75,2.448,2.448,0,0,1,12.712,6.185ZM17.635,8.62a1.846,1.846,0,1,1-1.846-1.826A1.836,1.836,0,0,1,17.635,8.62Zm-11.077,0A1.846,1.846,0,1,1,4.712,6.793,1.836,1.836,0,0,1,6.558,8.62Z" transform="translate(8.249 7.75)" fill="none" stroke="#fff" stroke-linecap="round" stroke-linejoin="round" stroke-width="1"/>
  </g>
</svg>
