<svg xmlns="http://www.w3.org/2000/svg" width="60" height="18" viewBox="0 0 60 18">
  <g id="Group_22710" data-name="Group 22710" transform="translate(0 0)">
    <g id="Group_22712" data-name="Group 22712" transform="translate(0 0)">
      <path id="Path_16931" data-name="Path 16931" d="M22.356,0a5.847,5.847,0,0,0-5.77,6.011,5.712,5.712,0,1,0,11.406.051A5.868,5.868,0,0,0,22.356,0m8.393.227a2.611,2.611,0,0,0-.376.015c-1.034.1-1.515.522-1.515,1.642,0,2.56.025,5.133-.011,7.692-.036,2.2.565,2.178,2.055,2.178.877,0,1.394-.344,1.43-1.554.024-.866,0-1.731,0-2.763.721,1.057,1.43,1.923,1.971,2.916A2.379,2.379,0,0,0,37,11.754a1.122,1.122,0,0,0,1.118-1.235v-8.9A1.182,1.182,0,0,0,36.875.28c-.264-.013-.516,0-.781,0a1.253,1.253,0,0,0-1.347,1.439V4.534A29.672,29.672,0,0,1,32.584,1.49,2.207,2.207,0,0,0,30.749.227ZM42.483.236c-.67,0-1.34.006-2.013.019a1.146,1.146,0,0,0-1.166,1.3V6.011c0,1.5,0,3.006-.012,4.509a1.1,1.1,0,0,0,1.106,1.2c1.43.013,2.849.013,4.267,0,.817-.013,1.13-.5,1.118-1.642a1.139,1.139,0,0,0-1.154-1.286c-.481-.013-.962-.025-1.443,0-.3.013-.457-.051-.42-.408a2.293,2.293,0,0,0,0-.573c-.036-.344.1-.446.409-.434.421.025.841,0,1.261,0,.781-.013,1.214-.5,1.227-1.362.012-.891-.445-1.426-1.227-1.439a11.335,11.335,0,0,0-1.142.012c-.433.051-.517-.127-.529-.56-.012-.573.12-.828.685-.726a4.7,4.7,0,0,0,.6.013c1.022.1,1.743-.382,1.635-1.719C45.626.765,45.265.268,44.5.255Q43.487.236,42.483.236Zm7.769,0C49.43.213,48.6.267,47.777.28c-.541.013-1.009.675-1.009,1.3-.012,2.955-.012,5.9,0,8.851a1.166,1.166,0,0,0,1.226,1.3q.541.019,1.082,0a1.122,1.122,0,0,0,1.166-1.261V9.03c.036,0,.072-.013.1-.013.373.662.757,1.324,1.106,2a1.186,1.186,0,0,0,1.214.726c.565-.025,1.117,0,1.682-.012.841-.025,1.2-.662.817-1.465-.325-.624-.661-1.248-1.009-1.846a.515.515,0,0,1,.072-.739A4.344,4.344,0,0,0,52.681.662,7.393,7.393,0,0,0,50.252.237Zm7.987,0c-.2,0-.43.006-.678.014a1.276,1.276,0,0,0-1.3,1.336c-.024,2.955-.024,5.9,0,8.852A1.147,1.147,0,0,0,57.5,11.729c.4.013.805.013,1.2,0,.865-.013,1.274-.446,1.274-1.363V6.037c0-1.1-.036-2.2.012-3.312C60.074.563,59.669.244,58.238.241ZM10.67.253C9.88.236,9.087.286,8.294.305a1,1,0,0,0-.962,1.083v9.232a1.081,1.081,0,0,0,1.057,1.108c.385.013.758.012,1.142.012.817-.013,1.238-.445,1.274-1.311.024-.509,0-1.019,0-1.707a16.777,16.777,0,0,0,4.711,6.915A10.4,10.4,0,0,0,24.1,17.816a10.946,10.946,0,0,0,5.06-2.433,1.367,1.367,0,0,0,.168-2.063c-.228-.255-.5-.471-.769-.713a1.128,1.128,0,0,0-1.778-.063A7.114,7.114,0,0,1,20.1,13.894c-2.764-.815-4.315-2.967-5.517-5.514-.132-.28,0-.459.18-.663,1.947-2.2,1.37-6.1-1.731-7.106A8.087,8.087,0,0,0,10.67.253Zm-9.348,0A1.251,1.251,0,0,0,0,1.656v8.711c0,.917.408,1.349,1.274,1.349.337.013.685.013,1.021,0a1.145,1.145,0,0,0,1.191-1.261c0-.408-.024-.8,0-1.21.036-.6-.253-1.413.12-1.757.325-.293,1.07-.09,1.622-.1.721-.026,1.141-.522,1.141-1.375,0-.891-.42-1.414-1.165-1.427H3.822c-.156,0-.3.026-.349-.229-.156-.815.012-1.044.782-1.044h.781C5.961,3.3,6.37,2.853,6.37,1.821,6.382.713,6,.255,5.048.255ZM50.806,3.381a1.19,1.19,0,0,1,1.107,1.013,1.283,1.283,0,0,1-1.25,1.554c-.288.025-.457-.038-.433-.408.024-.293,0-.586,0-.891a1.411,1.411,0,0,1,0-.318c.12-.306-.312-.866.325-.943a1.251,1.251,0,0,1,.251-.007ZM11.047,3.4a.566.566,0,0,1,.214.014A1.223,1.223,0,0,1,12.5,4.725,1.38,1.38,0,0,1,11.094,5.96c-.264-.013-.276-.165-.276-.368,0-.573.024-1.134,0-1.707C10.8,3.588,10.869,3.428,11.047,3.4ZM22.3,3.591a2.326,2.326,0,0,1,2.223,2.446A2.341,2.341,0,0,1,22.272,8.43a2.463,2.463,0,0,1-2.308-2.393A2.467,2.467,0,0,1,22.3,3.591Z" transform="translate(0 0.001)" fill="#00b9db"/>
    </g>
  </g>
</svg>
