<svg xmlns="http://www.w3.org/2000/svg" width="36" height="36" viewBox="0 0 36 36">
  <g id="Group_22702" data-name="Group 22702" transform="translate(-24 -517)">
    <g id="Rectangle_6118" data-name="Rectangle 6118" transform="translate(24 517)" fill="#f2f3f7" stroke="#d7d8df" stroke-width="1" opacity="0">
      <rect width="36" height="36" rx="6" stroke="none"/>
      <rect x="0.5" y="0.5" width="35" height="35" rx="5.5" fill="none"/>
    </g>
    <path id="Path_16640" data-name="Path 16640" d="M8.35,6.515a2.575,2.575,0,0,1,3.3,0,1.866,1.866,0,0,1,0,2.887,2.3,2.3,0,0,1-.521.344A1.74,1.74,0,0,0,10,11.167v.583M17,10a7,7,0,1,1-7-7A7,7,0,0,1,17,10Zm-7,4.083h.006v.006H10Z" transform="translate(32.5 525.5)" fill="none" stroke="#707070" stroke-linecap="round" stroke-linejoin="round" stroke-width="1"/>
  </g>
</svg>
