<svg xmlns="http://www.w3.org/2000/svg" xmlns:xlink="http://www.w3.org/1999/xlink" width="48" height="48" viewBox="0 0 48 48">
  <defs>
    <filter id="Rectangle_6111" x="0" y="0" width="48" height="48" filterUnits="userSpaceOnUse">
      <feOffset input="SourceAlpha"/>
      <feGaussianBlur stdDeviation="2" result="blur"/>
      <feFlood flood-opacity="0.161"/>
      <feComposite operator="in" in2="blur"/>
      <feComposite in="SourceGraphic"/>
    </filter>
  </defs>
  <g id="Service_Workflow_Icon" data-name="Service Workflow Icon" transform="translate(6 6)">
    <g transform="matrix(1, 0, 0, 1, -6, -6)" filter="url(#Rectangle_6111)">
      <rect id="Rectangle_6111-2" data-name="Rectangle 6111" width="36" height="36" rx="6" transform="translate(6 6)" fill="#0560fd"/>
    </g>
    <path id="Path_16635" data-name="Path 16635" d="M8.823,11.512,13,15.691A1.9,1.9,0,1,0,15.69,13L11.477,8.79M8.823,11.512,10.612,9.34a1.742,1.742,0,0,1,.866-.549M8.823,11.512,5.486,15.564a1.827,1.827,0,1,1-2.571-2.571l4.9-4.036m3.662-.167a3.447,3.447,0,0,1,1.249-.1,3.226,3.226,0,0,0,3.216-4.542L13.595,6.5a2.153,2.153,0,0,1-1.613-1.613L14.33,2.536A3.226,3.226,0,0,0,9.788,5.752,2.413,2.413,0,0,1,9.14,7.866l-.073.061M7.816,8.958,4.872,6.013H3.862L2.249,3.325,3.324,2.25,6.013,3.863v1.01L9.066,7.927M7.815,8.957l1.251-1.03m4.742,5.882-1.882-1.882m-7.8,2.419h.006v.006H4.125Z" transform="translate(9.253 9.25)" fill="none" stroke="#fff" stroke-linecap="round" stroke-linejoin="round" stroke-width="1"/>
  </g>
</svg>
