<svg xmlns="http://www.w3.org/2000/svg" width="36" height="36" viewBox="0 0 36 36">
  <g id="Group_22697" data-name="Group 22697" transform="translate(-24 -229)">
    <g id="Rectangle_6113" data-name="Rectangle 6113" transform="translate(24 229)" fill="#f2f3f7" stroke="#d7d8df" stroke-width="1" opacity="0">
      <rect width="36" height="36" rx="6" stroke="none"/>
      <rect x="0.5" y="0.5" width="35" height="35" rx="5.5" fill="none"/>
    </g>
    <path id="Path_16636" data-name="Path 16636" d="M8.143,4.556H6.571A1.564,1.564,0,0,0,5,6.111v9.333A1.564,1.564,0,0,0,6.571,17h7.857A1.564,1.564,0,0,0,16,15.444V6.111a1.564,1.564,0,0,0-1.571-1.556H12.857m-4.714,0A1.564,1.564,0,0,0,9.714,6.111h1.571a1.564,1.564,0,0,0,1.571-1.556m-4.714,0A1.564,1.564,0,0,1,9.714,3h1.571a1.564,1.564,0,0,1,1.571,1.556m-4.714,7,1.571,1.556L12.857,10" transform="translate(31.5 237.5)" fill="none" stroke="#707070" stroke-linecap="round" stroke-linejoin="round" stroke-width="1"/>
  </g>
</svg>
