<svg xmlns="http://www.w3.org/2000/svg" xmlns:xlink="http://www.w3.org/1999/xlink" width="48" height="48" viewBox="0 0 48 48">
  <defs>
    <filter id="Rectangle_6110" x="0" y="0" width="48" height="48" filterUnits="userSpaceOnUse">
      <feOffset input="SourceAlpha"/>
      <feGaussianBlur stdDeviation="2" result="blur"/>
      <feFlood flood-opacity="0.161"/>
      <feComposite operator="in" in2="blur"/>
      <feComposite in="SourceGraphic"/>
    </filter>
  </defs>
  <g id="Visits_Icon" data-name="Visits Icon" transform="translate(6 6)">
    <g transform="matrix(1, 0, 0, 1, -6, -6)" filter="url(#Rectangle_6110)">
      <rect id="Rectangle_6110-2" data-name="Rectangle 6110" width="36" height="36" rx="6" transform="translate(6 6)" fill="#0560fd"/>
    </g>
    <path id="Path_16824" data-name="Path 16824" d="M5.917,2V4.395M14.083,2V4.395M3,14.342V6.053A1.706,1.706,0,0,1,4.75,4.395h10.5A1.706,1.706,0,0,1,17,6.053v8.289m-14,0A1.706,1.706,0,0,0,4.75,16h10.5A1.706,1.706,0,0,0,17,14.342m-14,0V8.816A1.706,1.706,0,0,1,4.75,7.158h10.5A1.706,1.706,0,0,1,17,8.816v5.526" transform="translate(8 9)" fill="none" stroke="#fff" stroke-linecap="round" stroke-linejoin="round" stroke-width="1"/>
  </g>
</svg>
