<svg xmlns="http://www.w3.org/2000/svg" width="135.761" height="63.477" viewBox="0 0 135.761 63.477">
  <g id="Group_29535" data-name="Group 29535" transform="translate(-572.247 -66.804)">
    <path id="Path_16748" data-name="Path 16748" d="M50.585,0A12.823,12.823,0,0,0,37.53,12.8a12.9,12.9,0,0,0,25.809.109A12.848,12.848,0,0,0,50.585,0m18.99.483a6.273,6.273,0,0,0-.851.032C66.386.733,65.3,1.627,65.3,4.014c0,5.451.056,10.931-.026,16.382-.082,4.692,1.278,4.637,4.65,4.637,1.985,0,3.153-.733,3.235-3.31.054-1.844,0-3.687,0-5.884,1.632,2.251,3.236,4.1,4.46,6.211a5.469,5.469,0,0,0,6.093,2.983c1.632-.217,2.529-.975,2.529-2.63V3.445A2.587,2.587,0,0,0,83.437.6c-.6-.027-1.168,0-1.766,0a2.745,2.745,0,0,0-3.047,3.064v6a63.375,63.375,0,0,1-4.9-6.483C72.657,1.56,71.461.548,69.576.484ZM96.124.5c-1.516,0-3.031.013-4.554.041a2.5,2.5,0,0,0-2.639,2.765V12.8c0,3.2,0,6.4-.028,9.6a2.409,2.409,0,0,0,2.5,2.549c3.236.027,6.447.027,9.656,0,1.849-.027,2.557-1.057,2.529-3.5a2.49,2.49,0,0,0-2.611-2.739c-1.088-.027-2.177-.054-3.265,0-.68.027-1.033-.109-.951-.868a4.6,4.6,0,0,0,0-1.221c-.082-.732.219-.951.926-.924.952.054,1.9,0,2.854,0a2.608,2.608,0,0,0,2.775-2.9c.027-1.9-1.007-3.037-2.775-3.064-.87,0-1.74-.056-2.583.026-.979.108-1.17-.271-1.2-1.193-.027-1.221.272-1.763,1.55-1.546a11.285,11.285,0,0,0,1.36.028c2.312.217,3.944-.813,3.7-3.66-.136-1.763-.951-2.821-2.692-2.848Q98.4.5,96.124.5Zm17.579,0c-1.859-.051-3.737.065-5.6.092a2.748,2.748,0,0,0-2.283,2.767c-.027,6.292-.027,12.557,0,18.849a2.554,2.554,0,0,0,2.773,2.767q1.224.041,2.448,0a2.455,2.455,0,0,0,2.638-2.685V19.231c.082,0,.164-.028.218-.028.843,1.41,1.713,2.819,2.5,4.257a2.708,2.708,0,0,0,2.747,1.546c1.278-.054,2.528,0,3.806-.026,1.9-.054,2.72-1.41,1.849-3.119-.734-1.329-1.495-2.657-2.283-3.932a1.054,1.054,0,0,1,.162-1.574A9.006,9.006,0,0,0,119.2,1.41,17.67,17.67,0,0,0,113.7.506Zm18.071.009c-.463,0-.972.013-1.533.03a2.8,2.8,0,0,0-2.936,2.846c-.054,6.292-.054,12.559,0,18.852a2.517,2.517,0,0,0,2.8,2.739c.9.027,1.822.027,2.72,0,1.958-.027,2.882-.951,2.882-2.9V12.857c0-2.332-.081-4.694.028-7.053.19-4.6-.725-5.283-3.962-5.29ZM24.143.54C22.355.5,20.561.61,18.766.651a2.2,2.2,0,0,0-2.177,2.307V22.62a2.371,2.371,0,0,0,2.393,2.36c.87.027,1.715.026,2.585.026a2.593,2.593,0,0,0,2.882-2.792c.055-1.085,0-2.17,0-3.635,2.665,5.912,5.738,11.039,10.661,14.727a24.621,24.621,0,0,0,19.418,4.638,25.442,25.442,0,0,0,11.449-5.181,2.8,2.8,0,0,0,.381-4.394c-.517-.542-1.142-1-1.74-1.518-1.5-1.3-2.447-1.3-4.024-.135A16.878,16.878,0,0,1,45.471,29.59c-6.255-1.736-9.763-6.318-12.482-11.742-.3-.6,0-.977.408-1.411C37.8,11.744,36.5,3.446,29.48,1.3A19.355,19.355,0,0,0,24.143.54ZM2.991.544A2.741,2.741,0,0,0,0,3.527V22.079c0,1.952.924,2.874,2.882,2.874.762.027,1.55.027,2.311,0a2.511,2.511,0,0,0,2.694-2.685c0-.868-.054-1.709,0-2.576.082-1.275-.571-3.009.272-3.742.734-.624,2.42-.191,3.671-.218,1.632-.054,2.583-1.112,2.583-2.929,0-1.9-.95-3.011-2.636-3.038H8.649c-.354,0-.68.055-.789-.487-.354-1.736.028-2.224,1.768-2.224h1.766c2.094-.027,3.019-.976,3.019-3.173C14.44,1.52,13.57.544,11.422.544ZM114.957,7.2a2.633,2.633,0,0,1,2.5,2.157,2.782,2.782,0,0,1-2.829,3.31c-.653.054-1.034-.082-.979-.868.055-.624,0-1.248,0-1.9a2.83,2.83,0,0,1,0-.678c.272-.651-.706-1.845.735-2.008a3.019,3.019,0,0,1,.569-.015ZM25,7.239a1.358,1.358,0,0,1,.485.03,2.677,2.677,0,0,1,2.8,2.795,3.064,3.064,0,0,1-3.181,2.63c-.6-.027-.624-.351-.624-.785,0-1.221.055-2.414,0-3.635C24.436,7.643,24.594,7.3,25,7.239Zm25.452.411c3.182.163,5.33,2.849,5.031,5.208.3,2.6-2.446,5.124-5.084,5.1a5.413,5.413,0,0,1-5.221-5.1A5.41,5.41,0,0,1,50.448,7.649Z" transform="translate(572.247 66.805)" fill="#00b9db"/>
    <g id="Group_29534" data-name="Group 29534" transform="translate(0 17)">
      <path id="Path_16749" data-name="Path 16749" d="M2.45,284.768H0V285.9H2.45v6.793H3.843V285.9H6.314v-1.132H2.45Z" transform="translate(572.247 -179.521)"/>
      <path id="Path_16750" data-name="Path 16750" d="M105.384,289.166h3.244v-1.111h-3.244V285.9h3.767v-1.132h-5.171v7.925h5.2v-1.127h-3.794Z" transform="translate(482.305 -179.521)"/>
      <path id="Path_16751" data-name="Path 16751" d="M202.068,288.017a6.446,6.446,0,0,0-1.464-.6,6.376,6.376,0,0,1-.936-.351,1.653,1.653,0,0,1-.561-.406.778.778,0,0,1-.185-.511.991.991,0,0,1,.152-.544,1.036,1.036,0,0,1,.468-.381,1.932,1.932,0,0,1,.789-.142,1.834,1.834,0,0,1,.833.166,1.106,1.106,0,0,1,.487.463,1.391,1.391,0,0,1,.161.672h1.4a2.253,2.253,0,0,0-.346-1.225,2.422,2.422,0,0,0-.988-.874,3.375,3.375,0,0,0-1.535-.324,3.662,3.662,0,0,0-1.475.278,2.373,2.373,0,0,0-1,.77,1.885,1.885,0,0,0-.359,1.14,1.85,1.85,0,0,0,.2.874,2.114,2.114,0,0,0,.552.664,3.879,3.879,0,0,0,.83.5,8.1,8.1,0,0,0,1.037.387,6.36,6.36,0,0,1,1.051.406,1.223,1.223,0,0,1,.5.419,1.059,1.059,0,0,1,.133.547.93.93,0,0,1-.161.539,1.055,1.055,0,0,1-.476.367,2.035,2.035,0,0,1-.789.134,2.821,2.821,0,0,1-.672-.076,1.527,1.527,0,0,1-.547-.248,1.174,1.174,0,0,1-.365-.438,1.462,1.462,0,0,1-.131-.648h-1.4a2.219,2.219,0,0,0,.269,1.116,2.385,2.385,0,0,0,.719.787,3.288,3.288,0,0,0,1,.468,4.17,4.17,0,0,0,1.127.155,3.929,3.929,0,0,0,1.5-.261,2.2,2.2,0,0,0,.985-.748,1.937,1.937,0,0,0,.348-1.157,2.09,2.09,0,0,0-.286-1.11,2.432,2.432,0,0,0-.868-.811" transform="translate(401.605 -178.824)"/>
      <path id="Path_16752" data-name="Path 16752" d="M301.692,288.017a6.445,6.445,0,0,0-1.464-.6,6.376,6.376,0,0,1-.936-.351,1.652,1.652,0,0,1-.56-.406.778.778,0,0,1-.185-.511.991.991,0,0,1,.152-.544,1.036,1.036,0,0,1,.468-.381,1.931,1.931,0,0,1,.789-.142,1.834,1.834,0,0,1,.833.166,1.105,1.105,0,0,1,.487.463,1.39,1.39,0,0,1,.161.672h1.4a2.254,2.254,0,0,0-.346-1.225,2.423,2.423,0,0,0-.988-.874,3.375,3.375,0,0,0-1.535-.324,3.662,3.662,0,0,0-1.475.278,2.373,2.373,0,0,0-1,.77,1.885,1.885,0,0,0-.359,1.14,1.85,1.85,0,0,0,.2.874,2.113,2.113,0,0,0,.552.664,3.878,3.878,0,0,0,.83.5,8.1,8.1,0,0,0,1.037.387,6.36,6.36,0,0,1,1.051.406,1.223,1.223,0,0,1,.5.419,1.059,1.059,0,0,1,.133.547.93.93,0,0,1-.161.539,1.055,1.055,0,0,1-.476.367,2.035,2.035,0,0,1-.789.134,2.821,2.821,0,0,1-.672-.076,1.527,1.527,0,0,1-.547-.248,1.173,1.173,0,0,1-.365-.438,1.462,1.462,0,0,1-.131-.648h-1.4a2.219,2.219,0,0,0,.269,1.116,2.385,2.385,0,0,0,.719.787,3.288,3.288,0,0,0,1,.468,4.17,4.17,0,0,0,1.127.155,3.929,3.929,0,0,0,1.5-.261,2.2,2.2,0,0,0,.985-.748,1.937,1.937,0,0,0,.348-1.157,2.09,2.09,0,0,0-.286-1.11,2.432,2.432,0,0,0-.868-.811" transform="translate(315.431 -178.824)"/>
      <path id="Path_16753" data-name="Path 16753" d="M476.46,284.768h-.637l-2.253,6.042-2.254-6.042h-1.823v7.925h1.4v-2.542l-.137-3.578,2.32,6.12h.991l2.324-6.118-.141,3.576v2.542h1.4v-7.925H476.46Z" transform="translate(166.134 -179.521)"/>
      <path id="Path_16754" data-name="Path 16754" d="M594.428,284.427a3.421,3.421,0,0,0-3.446,0,3.129,3.129,0,0,0-1.165,1.333,4.725,4.725,0,0,0-.419,2.071v.408a4.68,4.68,0,0,0,.422,2.068,3.146,3.146,0,0,0,1.17,1.331,3.422,3.422,0,0,0,3.445,0,3.117,3.117,0,0,0,1.151-1.331A4.758,4.758,0,0,0,596,288.24v-.408a4.747,4.747,0,0,0-.416-2.071,3.126,3.126,0,0,0-1.157-1.333m.163,3.813a4.4,4.4,0,0,1-.218,1.481,1.891,1.891,0,0,1-.639.914,1.83,1.83,0,0,1-2.039,0,1.947,1.947,0,0,1-.653-.914,4.209,4.209,0,0,1-.228-1.481v-.419a4.226,4.226,0,0,1,.226-1.478,1.924,1.924,0,0,1,.648-.909,1.668,1.668,0,0,1,1.01-.307,1.7,1.7,0,0,1,1.023.307,1.9,1.9,0,0,1,.648.909,4.276,4.276,0,0,1,.223,1.478Z" transform="translate(62.416 -178.824)"/>
      <path id="Path_16755" data-name="Path 16755" d="M702.667,288.78a1.686,1.686,0,0,0-.5-.206,2.049,2.049,0,0,0,.211-.1,1.779,1.779,0,0,0,.7-.664,1.757,1.757,0,0,0,.237-.9,1.846,1.846,0,0,0-.743-1.625,3.538,3.538,0,0,0-2.055-.52h-2.705v7.925h2.928a3.156,3.156,0,0,0,2.028-.588,2.082,2.082,0,0,0,.732-1.726,2.045,2.045,0,0,0-.207-.912,1.687,1.687,0,0,0-.629-.689m-2.147-2.879a1.727,1.727,0,0,1,1.053.261,1,1,0,0,1,.34.844.987.987,0,0,1-.359.816,1.588,1.588,0,0,1-1.018.288h-1.317V285.9Zm1.241,5.334a1.409,1.409,0,0,1-1.018.332h-1.524v-2.433H700.8a1.6,1.6,0,0,1,.746.15.946.946,0,0,1,.419.427,1.5,1.5,0,0,1,.136.664,1.144,1.144,0,0,1-.343.86" transform="translate(-31.364 -179.521)"/>
      <rect id="Rectangle_8553" data-name="Rectangle 8553" width="1.399" height="7.925" transform="translate(680.28 105.247)"/>
      <path id="Path_16756" data-name="Path 16756" d="M873.992,284.768h-1.4v7.925h4.986v-1.127h-3.582Z" transform="translate(-182.544 -179.521)"/>
      <path id="Path_16757" data-name="Path 16757" d="M968.173,291.567v-2.4h3.244v-1.111h-3.244V285.9h3.767v-1.132h-5.171v7.925h5.2v-1.127Z" transform="translate(-264.01 -179.521)"/>
    </g>
  </g>
</svg>
