<svg id="Delete_-_Icon_Button" data-name="Delete - Icon Button" xmlns="http://www.w3.org/2000/svg" width="35" height="35" viewBox="0 0 35 35">
  <g id="Rectangle_5344" data-name="Rectangle 5344" fill="#fff" stroke="#e9eaf2" stroke-width="1">
    <rect width="35" height="35" rx="6" stroke="none"/>
    <rect x="0.5" y="0.5" width="34" height="34" rx="5.5" fill="none"/>
  </g>
  <path id="Path_16942" data-name="Path 16942" d="M13.075,7.788l-.294,7.384m-4.063,0L8.425,7.788m8.458-2.634c.29.043.579.088.867.136m-.867-.135-.906,11.39a1.884,1.884,0,0,1-1.9,1.7H7.427a1.884,1.884,0,0,1-1.9-1.7L4.617,5.154m12.266,0q-1.469-.215-2.951-.326M3.75,5.29c.288-.048.577-.094.867-.135m0,0q1.469-.215,2.951-.326m6.364,0V4.077a1.814,1.814,0,0,0-1.773-1.806q-1.408-.044-2.817,0A1.815,1.815,0,0,0,7.568,4.077v.752m6.364,0a42.7,42.7,0,0,0-6.364,0" transform="translate(7.25 7.25)" fill="none" stroke="#d20101" stroke-linecap="round" stroke-linejoin="round" stroke-width="1.5" opacity="0.7"/>
</svg>
