<svg xmlns="http://www.w3.org/2000/svg" width="94" height="74" viewBox="0 0 94 74">
  <g id="undraw_throw_away_re_x60k" transform="translate(-469 -161.053)">
    <path id="Path_8" data-name="Path 8" d="M781.274,520.289H745.167l-.007-.2-1.724-49.309h39.569Zm-35.7-.419h35.3l1.7-48.672h-38.7Z" transform="translate(-246.537 -285.366)" fill="#3f3d56"/>
    <g id="Group_1" data-name="Group 1" transform="translate(504.499 194.548)">
      <rect id="Rectangle_17" data-name="Rectangle 17" width="2.746" height="33.986" transform="translate(0 0)" fill="#3f3d56"/>
      <rect id="Rectangle_18" data-name="Rectangle 18" width="2.746" height="33.986" transform="translate(10.814 0)" fill="#3f3d56"/>
      <rect id="Rectangle_19" data-name="Rectangle 19" width="2.746" height="33.986" transform="translate(21.627 0)" fill="#3f3d56"/>
    </g>
    <path id="Path_16943" data-name="Path 16943" d="M871.866,409.371l-.177-.112-44.85-28.343,3.89-6.156.177.112,44.85,28.343Zm-44.449-28.585,44.318,28.007,3.442-5.447-44.318-28.007Z" transform="translate(-312.755 -209.252)" fill="#3f3d56"/>
    <path id="Path_10" data-name="Path 10" d="M943.3,388.515a8.063,8.063,0,0,0-12.29,7.982l2.139,1.351a6.362,6.362,0,1,1,6.076,3.841l2.139,1.351a8.063,8.063,0,0,0,1.939-14.526Z" transform="translate(-395.018 -219.135)" fill="#3f3d56"/>
    <rect id="Rectangle_21" data-name="Rectangle 21" width="94" height="0.419" transform="translate(469 234.633)" fill="#3f3d56"/>
    <g id="Group_4" data-name="Group 4" transform="translate(471.346 161.053)">
      <path id="Path_81" data-name="Path 81" d="M637.971,386.949l-17.612-12.343a.756.756,0,0,1-.185-1.051L634,353.83a.756.756,0,0,1,1.051-.185l17.612,12.343a.756.756,0,0,1,.185,1.051l-13.823,19.723A.756.756,0,0,1,637.971,386.949Z" transform="translate(-620.038 -353.509)" fill="#d20101" opacity="0.1"/>
      <path id="Path_82" data-name="Path 82" d="M683.72,414.2l-10.334-7.243a1.111,1.111,0,1,1,1.276-1.82L685,412.377a1.111,1.111,0,1,1-1.276,1.82Z" transform="translate(-661.827 -394.151)" fill="#fff"/>
      <path id="Path_83" data-name="Path 83" d="M672.408,430.338,662.074,423.1a1.111,1.111,0,0,1,1.276-1.82l10.334,7.243a1.111,1.111,0,0,1-1.276,1.82Z" transform="translate(-652.886 -406.908)" fill="#fff"/>
      <path id="Path_84" data-name="Path 84" d="M660.974,446.653,650.64,439.41a1.111,1.111,0,1,1,1.276-1.82l10.334,7.243a1.111,1.111,0,1,1-1.276,1.82Z" transform="translate(-643.849 -419.802)" fill="#fff"/>
      <path id="Path_85" data-name="Path 85" d="M707.45,398.995l-4-2.805a1.111,1.111,0,1,1,1.276-1.82l4,2.806a1.111,1.111,0,1,1-1.276,1.82Z" transform="translate(-685.585 -385.643)" fill="#fff"/>
    </g>
  </g>
</svg>
