<svg xmlns="http://www.w3.org/2000/svg" width="15" height="15" viewBox="0 0 15 15">
  <path id="Path_16844" data-name="Path 16844" d="M10,3a37.549,37.549,0,0,1,6.287.527A.861.861,0,0,1,17,4.38v.812a1.75,1.75,0,0,1-.513,1.237l-4.225,4.225a1.75,1.75,0,0,0-.513,1.237v2.277a1.75,1.75,0,0,1-.968,1.566L8.25,17V11.892a1.75,1.75,0,0,0-.513-1.237L3.513,6.429A1.75,1.75,0,0,1,3,5.192V4.38a.861.861,0,0,1,.713-.852A37.582,37.582,0,0,1,10,3Z" transform="translate(-2.5 -2.5)" fill="none" stroke="#6e6e6e" stroke-linecap="round" stroke-linejoin="round" stroke-width="1"/>
</svg>
