<svg id="Group_23535" data-name="Group 23535" xmlns="http://www.w3.org/2000/svg" xmlns:xlink="http://www.w3.org/1999/xlink" width="65.67" height="74.839" viewBox="0 0 65.67 74.839">
  <defs>
    <clipPath id="clip-path">
      <rect id="Rectangle_6510" data-name="Rectangle 6510" width="65.67" height="74.839" fill="none"/>
    </clipPath>
  </defs>
  <g id="Group_23535-2" data-name="Group 23535" clip-path="url(#clip-path)">
    <path id="Path_16970" data-name="Path 16970" d="M35.774,77.446l-4.259-2.332C10.131,63.4,5.343,41.783,3.3,17.528l1.582-.247c14.437-1.007,21.5-3.425,30.893-13.983,11.206,10.154,21.908,13.86,32.4,13.86l.1.021C66.341,41.628,61.466,63.449,39.9,75.2Z" transform="translate(-2.954 -2.953)" fill="#fff"/>
    <path id="Path_16971" data-name="Path 16971" d="M32.821,74.839a.345.345,0,0,1-.166-.043L28.4,72.464A47.218,47.218,0,0,1,6.882,48.206C2.409,37.471.894,25.2,0,14.6a.346.346,0,0,1,.291-.37l1.582-.247.029,0c13.779-.962,21.084-3.1,30.658-13.868A.347.347,0,0,1,32.8,0a.35.35,0,0,1,.251.089C43.279,9.356,53.8,13.86,65.221,13.86a.347.347,0,0,1,.07.007l.1.021a.345.345,0,0,1,.275.365c-.794,10.017-2.29,22.92-6.854,33.877a47.419,47.419,0,0,1-21.707,24.42L32.986,74.8a.344.344,0,0,1-.165.042M.717,14.867c2.243,26.245,7.9,45.979,28.01,56.992L32.821,74.1l3.956-2.155c20.4-11.116,26.047-30.983,28.175-57.394-11.4-.07-21.907-4.559-32.105-13.716C23.228,11.554,15.823,13.7,1.967,14.672Z" transform="translate(0 0)" fill="#3f3d56"/>
    <path id="Path_16972" data-name="Path 16972" d="M73.136,123.276a.343.343,0,0,1-.212-.073c-6.074-4.723-10.431-11.013-13.319-19.228-2.9-8.26-3.976-17.62-4.586-24.852a.346.346,0,0,1,.291-.37l1.3-.2.029,0c11.324-.79,17.328-2.548,25.2-11.395a.345.345,0,0,1,.24-.115.352.352,0,0,1,.251.089c8.406,7.617,17.054,11.319,26.438,11.319a.355.355,0,0,1,.07.007l.085.018a.345.345,0,1,1-.141.676l-.051-.011c-9.454-.009-18.16-3.695-26.608-11.266C74.21,76.67,68.107,78.438,56.7,79.235l-.97.151c1.63,19.033,5.277,33.679,17.613,43.272a.345.345,0,0,1-.212.618" transform="translate(-49.258 -60.018)" fill="#3f3d56"/>
    <path id="Path_16973" data-name="Path 16973" d="M310.684,322.029a.345.345,0,0,1-.166-.649l3.393-1.849c12.36-6.734,19.127-17.94,21.941-36.334a.345.345,0,0,1,.683.1c-2.849,18.628-9.725,29.989-22.293,36.836l-3.393,1.849a.345.345,0,0,1-.165.042" transform="translate(-277.846 -253.285)" fill="#3f3d56"/>
    <path id="Path_16974" data-name="Path 16974" d="M203.706,232.935a14.555,14.555,0,1,0-14.555,14.555,14.555,14.555,0,0,0,14.555-14.555" transform="translate(-156.315 -195.516)" fill="#b4b4b4" opacity="0.404"/>
    <path id="Path_16975" data-name="Path 16975" d="M230.123,281.817a1.067,1.067,0,0,1-.757-.314,12.867,12.867,0,0,0-18.174,0,1.071,1.071,0,0,1-1.514-1.514,15.008,15.008,0,0,1,21.2,0,1.071,1.071,0,0,1-.757,1.828" transform="translate(-187.444 -246.749)" fill="#0560fd" opacity="0.5"/>
    <path id="Path_16976" data-name="Path 16976" d="M253,321.459a1.067,1.067,0,0,1-.757-.314,8.578,8.578,0,0,0-12.116,0,1.071,1.071,0,0,1-1.514-1.514,10.719,10.719,0,0,1,15.145,0,1.071,1.071,0,0,1-.757,1.828" transform="translate(-213.346 -283.362)" fill="#0560fd" opacity="0.5"/>
    <path id="Path_16977" data-name="Path 16977" d="M275.868,361.107a1.067,1.067,0,0,1-.757-.314,4.289,4.289,0,0,0-6.058,0,1.071,1.071,0,0,1-1.514-1.514,6.433,6.433,0,0,1,9.087,0,1.071,1.071,0,0,1-.757,1.828" transform="translate(-239.247 -319.981)" fill="#0560fd" opacity="0.5"/>
    <path id="Path_16978" data-name="Path 16978" d="M295.3,402.567a2.142,2.142,0,1,1,1.514-.627,2.128,2.128,0,0,1-1.514.627" transform="translate(-262.466 -356.584)" fill="#0560fd" opacity="0.5"/>
    <rect id="Rectangle_6509" data-name="Rectangle 6509" width="31.217" height="3.544" transform="translate(20.545 47.203) rotate(-45)" fill="#fff"/>
  </g>
</svg>
