<svg id="Save_-_Icon_Button" data-name="Save - Icon Button" xmlns="http://www.w3.org/2000/svg" width="36" height="36" viewBox="0 0 36 36">
  <g id="Rectangle_5344" data-name="Rectangle 5344" fill="#fff" stroke="#e9eaf2" stroke-width="1">
    <rect width="36" height="36" rx="6" stroke="none"/>
    <rect x="0.5" y="0.5" width="35" height="35" rx="5.5" fill="none"/>
  </g>
  <g id="Group_23440" data-name="Group 23440" transform="translate(6763.5 2956.25)">
    <path id="Path_16952" data-name="Path 16952" d="M15.144,3.75V8.443H8.356V3.75m6.788,0h2.424c.022-.039,2.187,2.2,2.182,2.182V17.568a2.182,2.182,0,0,1-2.182,2.182H5.932A2.182,2.182,0,0,1,3.75,17.568V5.932A2.182,2.182,0,0,1,5.932,3.75H8.356m6.788,0H8.356" transform="translate(-6757.25 -2950)" fill="none" stroke="#0560fd" stroke-linecap="round" stroke-linejoin="round" stroke-width="1.5"/>
    <path id="Path_16960" data-name="Path 16960" d="M-6749.331-2929.925v-4h10v4" transform="translate(-1.17 -1)" fill="none" stroke="#0560fd" stroke-linecap="round" stroke-linejoin="round" stroke-width="1.5"/>
  </g>
</svg>
