<svg id="Group_23429" data-name="Group 23429" xmlns="http://www.w3.org/2000/svg" width="36" height="36" viewBox="0 0 36 36">
  <path id="Rectangle_5344" data-name="Rectangle 5344" d="M6,0H36a0,0,0,0,1,0,0V36a0,0,0,0,1,0,0H6a6,6,0,0,1-6-6V6A6,6,0,0,1,6,0Z" fill="none"/>
  <g id="Group_23431" data-name="Group 23431">
    <path id="Path_16957" data-name="Path 16957" d="M6.313,4.5v10m3.313-10v10m-5.818,0H15.131a.781.781,0,0,0,.809-.75V5.25a.781.781,0,0,0-.809-.75H3.809A.781.781,0,0,0,3,5.25v8.5A.781.781,0,0,0,3.809,14.5Z" transform="translate(9 8.5)" fill="none" stroke="#6e6e6e" stroke-linecap="round" stroke-linejoin="round" stroke-width="1"/>
    <path id="Path_16958" data-name="Path 16958" d="M9.626,4.5v10" transform="translate(12 8.5)" fill="none" stroke="#6e6e6e" stroke-linecap="round" stroke-linejoin="round" stroke-width="1"/>
  </g>
</svg>
