<svg id="Group_23428" data-name="Group 23428" xmlns="http://www.w3.org/2000/svg" width="36" height="36" viewBox="0 0 36 36">
  <path id="Rectangle_5344" data-name="Rectangle 5344" d="M6,0H36a0,0,0,0,1,0,0V36a0,0,0,0,1,0,0H6a6,6,0,0,1-6-6V6A6,6,0,0,1,6,0Z" fill="none"/>
  <path id="Path_16957" data-name="Path 16957" d="M7,4.5v10m4-10v10m-7.25,0h10.5a.75.75,0,0,0,.75-.75V5.25a.75.75,0,0,0-.75-.75H3.75A.75.75,0,0,0,3,5.25v8.5A.75.75,0,0,0,3.75,14.5Z" transform="translate(9 8.5)" fill="none" stroke="#6e6e6e" stroke-linecap="round" stroke-linejoin="round" stroke-width="1"/>
</svg>
